<?xml version="1.0" standalone="no"?>
<!DOCTYPE svg PUBLIC "-//W3C//DTD SVG 1.1//EN" "http://www.w3.org/Graphics/SVG/1.1/DTD/svg11.dtd" >
<svg xmlns="http://www.w3.org/2000/svg">
<metadata>Generated by IcoMoon</metadata>
<defs>
<font id="icomoon" horiz-adv-x="1024">
<font-face units-per-em="1024" ascent="896" descent="-128" />
<missing-glyph horiz-adv-x="1024" />
<glyph unicode="&#x20;" d="" />
<glyph unicode="&#xe603;" glyph-name="rili" d="M1024 0h-1024v768h1024zM64 64h896v640h-896zM288 512h64v-64h-64zM416 512h64v-64h-64zM544 512h64v-64h-64zM672 512h64v-64h-64zM160 512h64v-64h-64zM288 384h64v-64h-64zM416 384h64v-64h-64zM544 384h64v-64h-64zM672 384h64v-64h-64zM160 384h64v-64h-64zM288 256h64v-64h-64zM416 256h64v-64h-64zM544 256h64v-64h-64zM672 256h64v-64h-64zM800 512h64v-64h-64zM800 384h64v-64h-64zM800 256h64v-64h-64zM160 256h64v-64h-64zM160 896h64v-256h-64zM288 896h64v-256h-64zM416 896h64v-256h-64zM544 896h64v-256h-64zM672 896h64v-256h-64zM800 896h64v-256h-64zM0-64h1024v-64h-1024z" />
<glyph unicode="&#xe604;" glyph-name="shujuku" d="M864 512h-704c-53.019 0-96 42.981-96 96v0 192c0 53.019 42.981 96 96 96v0h704c53.019 0 96-42.981 96-96v0-192c0-53.019-42.981-96-96-96v0zM160 832c-17.673 0-32-14.327-32-32v0-192c0-17.673 14.327-32 32-32v0h704c17.673 0 32 14.327 32 32v0 192c0 17.673-14.327 32-32 32v0zM864 192h-704c-53.019 0-96 42.981-96 96v0 192c0 53.019 42.981 96 96 96v0h704c53.019 0 96-42.981 96-96v0-192c0-53.019-42.981-96-96-96v0zM160 512c-17.673 0-32-14.327-32-32v0-192c0-17.673 14.327-32 32-32v0h704c17.673 0 32 14.327 32 32v0 192c0 17.673-14.327 32-32 32v0zM864-128h-704c-53.019 0-96 42.981-96 96v0 192c0 53.019 42.981 96 96 96v0h704c53.019 0 96-42.981 96-96v0-192c0-53.019-42.981-96-96-96v0zM160 192c-17.673 0-32-14.327-32-32v0-192c0-17.673 14.327-32 32-32v0h704c17.673 0 32 14.327 32 32v0 192c0 17.673-14.327 32-32 32v0zM192 704c0-17.673 14.327-32 32-32s32 14.327 32 32v0c0 17.673-14.327 32-32 32s-32-14.327-32-32v0zM192 384c0-17.673 14.327-32 32-32s32 14.327 32 32v0c0 17.673-14.327 32-32 32s-32-14.327-32-32v0zM192 64c0-17.673 14.327-32 32-32s32 14.327 32 32v0c0 17.673-14.327 32-32 32s-32-14.327-32-32v0z" />
<glyph unicode="&#xe60c;" glyph-name="icon_jiaoyu" d="M856.348 85.333c0-35.1 18.261-65.82 45.71-83.57-13.938-26.539-39.879-44.43-70.656-44.43h-632.604c-47.644 0-84.196 42.553-81.636 94.464l34.674 681.87c2.508 42.807 37.65 76.621 80.773 76.999h564.944c43.166-0.364 78.317-34.186 80.8-76.779l0.010-0.22 28.587-562.148c-30.349-17.275-50.506-49.366-50.603-86.173v-0.014zM799.46 99.556c0 26.055-2.532 66.418 28.444 85.333h-568.889c-47.128 0-85.333-38.205-85.333-85.333s38.205-85.333 85.333-85.333v0h568.889c-30.948 14.222-28.444 59.307-28.444 85.333zM287.46 810.667h227.556v-455.111l-113.778 113.778-113.778-113.778v455.111z" />
<glyph unicode="&#xe60d;" glyph-name="icon_kefu" d="M514.219 125.895c4.665 0 18.29 0.313 23.068 0.853 45.767 0 83.769 26.311 98.987 64.512 0.214 0.623 0.338 1.341 0.338 2.088 0 2.702-1.617 5.027-3.936 6.058l-0.042 0.017c-0.817 0.367-1.771 0.581-2.775 0.581-2.486 0-4.666-1.313-5.884-3.282l-0.017-0.030c-0.171-0.313-32.597-25.372-89.145-25.372-10.61-1.422-20.935-0.398-30.72-0.398-49.607 0.057-71.708 19.399-71.879 19.57-2.503 2.19-6.343 2.247-8.903 0.114s-3.157-5.831-1.394-8.676c14.507-24.775 51.484-56.036 92.302-56.036zM840.050 293.632c-28.227-84.56-85.998-152.832-160.787-194.007l-1.773-0.895c-2.816-1.479-15.388 1.451-9.074 8.249l0.313 0.284c75.776 68.437 80.441 135.367 72.107 233.045-7.282 85.419-57.941 166.457-83.513 203.036l-1.792-1.081c-1.465 2.003-3.806 3.29-6.448 3.29-3.943 0-7.217-2.866-7.853-6.628l-0.007-0.047c-2.674-25.316-8.476-42.866-12.516-51.541-17.209-37.148-45.397-59.42-86.556-66.844-64.825-11.691-129.308-25.259-194.105-37.148-40.391-7.452-75.065-52.281-68.267-97.934 15.388-103.708 86.5-178.062 106.212-192.569-0.597 0.427-2.56-6.969-11.492-7.879-85.206 37.272-151.099 105.449-184.503 190.007l-0.813 2.334c-23.666 73.614-24.405 145.067 0.057 240.526 50.995 130.601 175.821 221.441 321.863 221.441 0.245 0 0.49 0 0.735-0.001h-0.038c148.366 0 274.489-92.956 323.157-223.061 13.995-45.284 30.265-129.877 5.092-222.578zM374.5 84.992c-0.057-0.057-0.057-0.057 0 0zM824.889 312.889c0-22.215 21.248-43.662 51.342-46.108-31.602-139.264-159.886-254.891-318.805-268.117-9.529 22.898-32.939 39.111-60.473 39.111-35.982 0-65.109-27.563-65.109-61.554s29.127-61.525 65.109-61.525c28.985 0 53.276 18.034 61.696 42.809 183.95 14.507 331.406 148.793 362.183 313.344 27.164 10.98 46.279 36.807 46.279 66.987v143.588c0 40.135-33.82 72.676-75.548 72.676-0.597 0-1.195-0.114-1.792-0.114-40.875 171.435-197.12 299.321-384.455 299.321-192.512 0-352.313-134.94-387.755-313.486-34.446-5.973-60.672-35.328-60.672-70.77v-141.881c0-39.765 32.939-72.050 73.614-72.050 22.955 0 68.608 29.611 68.608 57.771v142.222c0 35.556-2.332 60.16-19.911 67.072 27.42 152.348 162.844 268.231 326.116 268.231 162.475 0 297.472-114.716 325.803-266.041-2.816-3.612-7.737-30.464-6.229-40.818 1.508-10.382 0-154.368 0-170.667z" />
<glyph unicode="&#xe60f;" glyph-name="ziyuan" d="M0 384c0-282.77 229.23-512 512-512s512 229.23 512 512v0c0 282.77-229.23 512-512 512s-512-229.23-512-512v0zM462.746 100.147l207.155-203.366c170.484 57.355 299.439 195.892 342.288 368.44l0.752 3.579-361.165 350.72zM706.56 488.141c0-130.97-172.749-281.6-194.56-281.6s-194.56 151.245-194.56 281.6c0 107.418 87.142 184.32 194.56 184.32s194.56-76.902 194.56-184.32zM496.845 213.914s3.277-40.96-36.864-43.827h106.598s-41.882 6.042-39.424 43.827c-4.379-2.457-9.499-4.193-14.944-4.893l-0.211-0.022c-5.658 0.772-10.772 2.502-15.385 5.031l0.23-0.116zM470.221 179.2h86.221q10.24 0 10.24-10.24v-61.44q0-10.24-10.24-10.24h-86.221q-10.24 0-10.24 10.24v61.44q0 10.24 10.24 10.24zM512 672.154c-107.418 0-194.56-76.595-194.56-184.32 0-130.355 174.080-281.6 194.56-281.6-205.619 353.587 0 465.92 0 465.92zM513.229 672.154c107.418 0 194.56-76.595 194.56-184.32 0-130.355-174.080-281.6-194.56-281.6 205.619 353.587 0 465.92 0 465.92zM459.981 161.894h106.701v-6.451h-106.701zM473.395 133.53c0-4.581 3.714-8.294 8.294-8.294s8.294 3.714 8.294 8.294v0c0 4.581-3.714 8.294-8.294 8.294s-8.294-3.714-8.294-8.294v0zM504.934 133.53c0-4.581 3.714-8.294 8.294-8.294s8.294 3.714 8.294 8.294v0c0 4.581-3.714 8.294-8.294 8.294s-8.294-3.714-8.294-8.294v0zM535.654 133.53c0-4.581 3.714-8.294 8.294-8.294s8.294 3.714 8.294 8.294v0c0 4.581-3.714 8.294-8.294 8.294s-8.294-3.714-8.294-8.294v0z" />
<glyph unicode="&#xe610;" glyph-name="checklist" d="M393.040 739.52v-53.12c0.022-14.762 11.995-26.721 26.76-26.721 0.070 0 0.141 0 0.211 0.001h208.389c0 0 0 0 0 0 14.765 0 26.737 11.958 26.76 26.718v53.122c-0.023 14.77-11.99 26.737-26.758 26.76h-0.002c-0.012 0-0.026 0-0.040 0-23.572 0-42.68 19.108-42.68 42.68 0 0.014 0 0.028 0 0.042v-0.002 12.28c-0.022 14.762-11.995 26.721-26.76 26.721-0.070 0-0.141 0-0.211-0.001h-69.429c0 0 0 0 0 0-14.765 0-26.737-11.958-26.76-26.718v-12.282c-0.022-23.514-19.022-42.584-42.507-42.72h-0.013c-0.059 0-0.13 0.001-0.2 0.001-14.779 0-26.76-11.981-26.76-26.76 0 0 0-0.001 0-0.001v0zM628.2 766.28c-0.012 0-0.026 0-0.040 0-23.572 0-42.68 19.108-42.68 42.68 0 0.014 0 0.028 0 0.042v-0.002 12.28c-0.023 14.762-11.995 26.72-26.76 26.72h-32c0 0 0 0 0 0 14.765 0 26.737-11.958 26.76-26.718v-12.282c0-0.012 0-0.026 0-0.040 0-23.572 19.108-42.68 42.68-42.68 0.014 0 0.028 0 0.042 0h-0.002c14.77-0.023 26.737-11.99 26.76-26.758v-53.122c-0.023-14.762-11.995-26.72-26.76-26.72h32c0 0 0 0 0 0 14.765 0 26.737 11.958 26.76 26.718v53.122c-0.023 14.77-11.99 26.737-26.758 26.76h-0.002zM253.24-80h537.52c17.673 0 32 14.327 32 32v0 720.96c0 17.673-14.327 32-32 32v0h-131.8v-18.56c-0.046-23.589-19.168-42.697-42.758-42.72h-208.202c-0.048 0-0.104 0-0.16 0-23.61 0-42.755 19.117-42.8 42.716v18.564h-112c-17.673 0-32-14.327-32-32v0-720.96c0 0 0 0 0-0.001 0-17.673 14.327-32 32-32 0.070 0 0.141 0 0.211 0.001h-0.011zM378.88 597.96c1.45-1.448 2.346-3.449 2.346-5.66s-0.897-4.212-2.346-5.66v0l-80-80c-1.448-1.45-3.449-2.346-5.66-2.346s-4.212 0.897-5.66 2.346v0l-40 40c-1.449 1.449-2.344 3.45-2.344 5.66 0 4.421 3.584 8.004 8.004 8.004 2.21 0 4.211-0.896 5.66-2.344l34.36-34.36 74.36 74.36c1.446 1.438 3.439 2.326 5.64 2.326s4.194-0.889 5.64-2.327v0zM258.88 437.96l34.36-34.36 74.36 74.36c1.449 1.449 3.45 2.344 5.66 2.344 4.421 0 8.004-3.584 8.004-8.004 0-2.21-0.896-4.211-2.344-5.66l-80-80c-1.448-1.45-3.449-2.346-5.66-2.346s-4.212 0.897-5.66 2.346v0l-40 40c-1.449 1.449-2.344 3.45-2.344 5.66 0 4.421 3.584 8.004 8.004 8.004 2.21 0 4.211-0.896 5.66-2.344v0zM258.88 317.96l34.36-34.36 74.36 74.36c1.449 1.449 3.45 2.344 5.66 2.344 4.421 0 8.004-3.584 8.004-8.004 0-2.21-0.896-4.211-2.344-5.66l-80-80c-1.448-1.45-3.449-2.346-5.66-2.346s-4.212 0.897-5.66 2.346v0l-40 40c-1.449 1.449-2.344 3.45-2.344 5.66 0 4.421 3.584 8.004 8.004 8.004 2.21 0 4.211-0.896 5.66-2.344v0zM258.88 197.96l34.36-34.36 74.36 74.36c1.449 1.449 3.45 2.344 5.66 2.344 4.421 0 8.004-3.584 8.004-8.004 0-2.21-0.896-4.211-2.344-5.66l-80-80c-1.448-1.45-3.449-2.346-5.66-2.346s-4.212 0.897-5.66 2.346v0l-40 40c-1.449 1.449-2.344 3.45-2.344 5.66 0 4.421 3.584 8.004 8.004 8.004 2.21 0 4.211-0.896 5.66-2.344v0zM258.88 78.28l34.36-34.28 74.36 74.28c1.449 1.449 3.45 2.344 5.66 2.344 4.421 0 8.004-3.584 8.004-8.004 0-2.21-0.896-4.211-2.344-5.66l-80-80c-1.448-1.45-3.449-2.346-5.66-2.346s-4.212 0.897-5.66 2.346v0l-40 40c-1.449 1.449-2.344 3.45-2.344 5.66 0 4.421 3.584 8.004 8.004 8.004 2.21 0 4.211-0.896 5.66-2.344v0zM770.88 544.32h-337.84c-4.418 0-8 3.582-8 8s3.582 8 8 8v0h337.72c4.418 0 8-3.582 8-8s-3.582-8-8-8v0zM433.16 440.32h337.72c4.418 0 8-3.582 8-8s-3.582-8-8-8v0h-337.84c-4.418 0-8 3.582-8 8s3.582 8 8 8v0zM433.16 320.32h337.72c4.418 0 8-3.582 8-8s-3.582-8-8-8v0h-337.84c-4.418 0-8 3.582-8 8s3.582 8 8 8v0zM433.16 200.32h337.72c4.418 0 8-3.582 8-8s-3.582-8-8-8v0h-337.84c-4.418 0-8 3.582-8 8s3.582 8 8 8v0zM433.16 80.64h337.72c4.418 0 8-3.582 8-8s-3.582-8-8-8v0h-337.84c-4.418 0-8 3.582-8 8s3.582 8 8 8v0zM790.76 704.96h-20c17.673 0 32-14.327 32-32v0-720.96c0-17.673-14.327-32-32-32v0h20c17.673 0 32 14.327 32 32v0 720.96c0 17.673-14.327 32-32 32v0zM546.72 866h-69.44c-24.697-0.023-44.714-20.026-44.76-44.716v-12.284c-0.022-13.574-10.963-24.584-24.507-24.72h-0.013c-0.071 0-0.156 0.001-0.24 0.001-24.698 0-44.72-20.022-44.72-44.72 0-0.014 0-0.029 0-0.043v0.002-16.56h-129.8c-27.605-0.023-49.977-22.395-50-49.998v-720.962c0.023-27.605 22.395-49.977 49.998-50h557.522c27.605 0.023 49.977 22.395 50 49.998v720.962c-0.023 27.605-22.395 49.977-49.998 50h-129.802v16.56c-0.023 24.711-20.049 44.737-44.758 44.76h-0.002c-0.012 0-0.026 0-0.040 0-13.63 0-24.68 11.050-24.68 24.68 0 0.014 0 0.028 0 0.042v-0.002 12.28c-0.046 24.694-20.063 44.697-44.758 44.72h-0.002zM660.96 686.4v16.56h129.8c16.559-0.023 29.977-13.441 30-29.998v-720.962c-0.023-16.559-13.441-29.977-29.998-30h-557.522c-16.559 0.023-29.977 13.441-30 29.998v720.962c0.023 16.559 13.441 29.977 29.998 30h129.802v-16.56c0.045-24.708 20.086-44.72 44.8-44.72 0.056 0 0.113 0 0.169 0h208.391c24.611 0.136 44.515 20.096 44.56 44.716v0.004zM616.2 764.28c13.665-0.023 24.737-11.095 24.76-24.758v-53.122c-0.023-13.657-11.099-24.72-24.76-24.72 0 0 0 0 0 0h-208.2c0 0 0 0 0 0-13.661 0-24.737 11.063-24.76 24.718v53.122c0 13.675 11.085 24.76 24.76 24.76v0c24.689 0.023 44.697 20.031 44.72 44.718v12.282c0.023 13.657 11.099 24.72 24.76 24.72 0 0 0 0 0 0h69.44c0 0 0 0 0 0 13.661 0 24.737-11.063 24.76-24.718v-12.282c0-0.012 0-0.026 0-0.040 0-24.676 20.004-44.68 44.68-44.68 0.014 0 0.028 0 0.042 0h-0.002zM366.16 599.4l-72.92-72.92-32.92 32.92c-1.812 1.812-4.315 2.933-7.080 2.933-5.53 0-10.013-4.483-10.013-10.013 0-2.765 1.121-5.268 2.933-7.080l40-40c1.811-1.815 4.314-2.938 7.080-2.938s5.269 1.123 7.080 2.938v0l80 80c1.812 1.812 2.933 4.315 2.933 7.080 0 5.53-4.483 10.013-10.013 10.013-2.765 0-5.268-1.121-7.080-2.933v0zM423.040 552.32c0-5.523 4.477-10 10-10v0h337.72c5.523 0 10 4.477 10 10s-4.477 10-10 10v0h-337.72c-5.523 0-10-4.477-10-10v0zM366.16 479.4l-72.92-72.92-32.92 32.92c-1.812 1.812-4.315 2.933-7.080 2.933-5.53 0-10.013-4.483-10.013-10.013 0-2.765 1.121-5.268 2.933-7.080l40-40c1.811-1.815 4.314-2.938 7.080-2.938s5.269 1.123 7.080 2.938v0l80 80c1.812 1.812 2.933 4.315 2.933 7.080 0 5.53-4.483 10.013-10.013 10.013-2.765 0-5.268-1.121-7.080-2.933v0zM770.76 442.32h-337.72c-5.523 0-10-4.477-10-10s4.477-10 10-10v0h337.72c5.523 0 10 4.477 10 10s-4.477 10-10 10v0zM366.16 359.4l-72.92-72.92-32.92 32.92c-1.812 1.812-4.315 2.933-7.080 2.933-5.53 0-10.013-4.483-10.013-10.013 0-2.765 1.121-5.268 2.933-7.080l40-40c1.811-1.815 4.314-2.938 7.080-2.938s5.269 1.123 7.080 2.938v0l80 80c1.812 1.812 2.933 4.315 2.933 7.080 0 5.53-4.483 10.013-10.013 10.013-2.765 0-5.268-1.121-7.080-2.933v0zM770.76 322.32h-337.72c-5.523 0-10-4.477-10-10s4.477-10 10-10v0h337.72c5.523 0 10 4.477 10 10s-4.477 10-10 10v0zM366.16 239.4l-72.92-72.92-32.92 32.92c-1.812 1.812-4.315 2.933-7.080 2.933-5.53 0-10.013-4.483-10.013-10.013 0-2.765 1.121-5.268 2.933-7.080l40-40c1.811-1.815 4.314-2.938 7.080-2.938s5.269 1.123 7.080 2.938v0l80 80c1.812 1.812 2.933 4.315 2.933 7.080 0 5.53-4.483 10.013-10.013 10.013-2.765 0-5.268-1.121-7.080-2.933v0zM770.76 202.32h-337.72c-5.523 0-10-4.477-10-10s4.477-10 10-10v0h337.72c5.523 0 10 4.477 10 10s-4.477 10-10 10v0zM366.16 119.72l-72.92-72.92-32.92 32.92c-1.812 1.812-4.315 2.933-7.080 2.933-5.53 0-10.013-4.483-10.013-10.013 0-2.765 1.121-5.268 2.933-7.080l40-40c1.811-1.815 4.314-2.938 7.080-2.938s5.269 1.123 7.080 2.938v0l80 80c1.812 1.812 2.933 4.315 2.933 7.080 0 5.53-4.483 10.013-10.013 10.013-2.765 0-5.268-1.121-7.080-2.933v0zM770.76 82.64h-337.72c-5.523 0-10-4.477-10-10s4.477-10 10-10v0h337.72c5.523 0 10 4.477 10 10s-4.477 10-10 10v0zM940 92.64h-16v16c0 2.209-1.791 4-4 4s-4-1.791-4-4v0-16h-16c-2.209 0-4-1.791-4-4s1.791-4 4-4v0h16v-16c0-2.209 1.791-4 4-4s4 1.791 4 4v0 16h16c2.209 0 4 1.791 4 4s-1.791 4-4 4v0zM731 757.28c-13.255 0-24 10.745-24 24s10.745 24 24 24c13.255 0 24-10.745 24-24v0c0-13.255-10.745-24-24-24v0zM731 797.28c-8.837 0-16-7.163-16-16s7.163-16 16-16c8.837 0 16 7.163 16 16v0c0 8.837-7.163 16-16 16v0zM920 538.32c-13.255 0-24 10.745-24 24s10.745 24 24 24c13.255 0 24-10.745 24-24v0c0-13.255-10.745-24-24-24v0zM920 578.32c-8.837 0-16-7.163-16-16s7.163-16 16-16c8.837 0 16 7.163 16 16v0c0 8.837-7.163 16-16 16v0zM156 278.6h-10.36l7.32 7.32c0.598 0.695 0.962 1.606 0.962 2.602 0 2.209-1.791 4-4 4-0.996 0-1.907-0.364-2.607-0.966l0.005 0.004-7.32-7.32v10.36c0 2.209-1.791 4-4 4s-4-1.791-4-4v0-10.36l-7.32 7.32c-0.695 0.598-1.606 0.962-2.602 0.962-2.209 0-4-1.791-4-4 0-0.996 0.364-1.907 0.966-2.607l-0.004 0.005 7.32-7.32h-10.36c-2.209 0-4-1.791-4-4s1.791-4 4-4v0h10.36l-7.32-7.32c-0.598-0.695-0.962-1.606-0.962-2.602 0-2.209 1.791-4 4-4 0.996 0 1.907 0.364 2.607 0.966l-0.005-0.004 7.32 7.28v-10.36c0-2.209 1.791-4 4-4s4 1.791 4 4v0 10.36l7.32-7.32c0.695-0.598 1.606-0.962 2.602-0.962 2.209 0 4 1.791 4 4 0 0.996-0.364 1.907-0.966 2.607l0.004-0.005-7.32 7.32h10.36c2.209 0 4 1.791 4 4s-1.791 4-4 4v0z" />
<glyph unicode="&#xe613;" glyph-name="tubiaozhizuomoban" horiz-adv-x="2137" d="M982.97 731.614c-117.895 0-219.21-92.968-264.023-226.14v-8.252c3.55 0.264 7.101 0.415 10.707 0.415 104.865 0 189.864-111.739 189.864-249.576 0-52.026-12.124-100.333-32.84-140.311 0.151 2.568 0.245 5.137 0.245 7.743-0.001 5.599-0.358 11.114-1.049 16.524l0.067-0.642c-18.884-49.609-57.73-83.696-102.75-83.696-10.070 0.011-19.743 1.69-28.765 4.775l0.627-0.186c3.263-5.094 6.742-9.527 10.596-13.601l-0.040 0.042h379.954c76.085 68.324 126.072 183.179 126.072 313.481 0 209.466-129.245 379.425-288.667 379.425zM1683.486 38.708c-6.949 231.485-151.887 416.344-329.684 416.344s-322.715-184.878-329.702-416.344zM773.391 36.386c-16.466 0.066-32.044 3.805-45.976 10.44l0.653-0.28c-35.88 16.467-64.943 52.026-79.975 97.538-24.021 72.743 1.681 157.741 57.276 189.448 10.3 6.201 22.734 9.869 36.025 9.869 10.921 0 21.263-2.477 30.496-6.899l-0.425 0.184c23.605-10.859 42.811-34.275 52.706-64.207 15.863-48.042-1.19-104.204-37.976-125.203-3.777-2.096-8.12-0.302-9.933 4.003-0.498 1.112-0.788 2.41-0.788 3.776 0 3.263 1.655 6.14 4.172 7.836l0.034 0.021c30.026 17.128 43.774 63.47 30.63 103.279-8.385 25.418-24.55 45.209-44.284 54.293-7.215 3.471-15.686 5.498-24.631 5.498-10.902 0-21.101-3.012-29.81-8.25l0.261 0.146c-48.835-27.854-71.232-103.014-49.93-167.542 13.54-40.979 39.657-72.913 71.553-87.624 28.761-13.219 60.015-11.727 88.001 4.23 78.2 44.605 114.137 164.804 80.089 267.932-21.566 65.302-63.168 116.233-114.156 139.744-46.059 21.188-96.084 18.884-140.878-6.761-77.237-44.057-131.265-135.873-144.541-245.591-0.567-4.759-4.325-8.064-8.385-7.384s-6.893 5.080-6.307 9.839c13.956 115.459 71.062 212.204 152.737 258.716 48.571 27.703 102.844 30.215 152.812 7.308 54.765-25.248 99.54-79.787 122.579-149.621 36.768-111.418-2.455-241.38-87.435-289.856-15.648-9.259-34.466-14.772-54.564-14.881h-0.031zM1038.792 203.191c-16.466 0.064-32.044 3.804-45.976 10.44l0.653-0.28c-35.88 16.467-64.943 52.026-79.975 97.538-24.021 72.743 1.681 157.741 57.276 189.448 10.301 6.199 22.735 9.867 36.026 9.867 10.92 0 21.262-2.476 30.495-6.896l-0.426 0.184c23.605-10.859 42.811-34.275 52.706-64.207 15.863-48.042-1.171-104.204-37.976-125.203-3.777-2.096-8.12-0.302-9.933 4.003-0.498 1.112-0.788 2.41-0.788 3.776 0 3.263 1.655 6.14 4.172 7.836l0.034 0.021c30.045 17.128 43.774 63.47 30.63 103.279-8.385 25.418-24.55 45.209-44.284 54.293-7.215 3.474-15.687 5.503-24.633 5.503-10.902 0-21.101-3.014-29.807-8.255l0.261 0.146c-48.835-27.854-71.232-103.014-49.93-167.542 13.521-40.979 39.657-72.913 71.553-87.624 28.761-13.219 60.033-11.746 88.020 4.23 78.2 44.605 114.118 164.804 80.070 267.951-21.566 65.302-63.168 116.233-114.156 139.744-46.059 21.188-96.084 18.884-140.878-6.761-52.99-30.215-96.31-84.375-121.936-152.473-1.662-4.4-6.043-6.383-9.782-4.457-2.693 1.668-4.46 4.606-4.46 7.958 0 1.263 0.251 2.468 0.706 3.567l-0.023-0.062c27.061 71.761 72.875 129.056 129.018 161.103 48.59 27.703 102.844 30.215 152.812 7.308 54.765-25.248 99.521-79.768 122.579-149.621 36.768-111.418-2.455-241.38-87.435-289.856-15.648-9.287-34.47-14.826-54.577-14.956h-0.037zM1641.449 38.973c-4.006 0.292-7.168 3.527-7.345 7.537l-0.001 0.017c-22.982 189.467-145.41 327.002-291.292 327.002-62.772 0-122.748-25.645-173.302-74.14-1.213-1.211-2.887-1.959-4.736-1.959-2.401 0-4.507 1.262-5.691 3.158l-0.016 0.028c-1.056 1.535-1.686 3.433-1.686 5.479 0 2.626 1.039 5.009 2.728 6.761l-0.003-0.003c53.292 50.988 116.479 78.087 182.706 78.087 74.329 0 146.184-35.012 202.365-98.576 55.388-62.677 92.194-149.187 103.637-243.363 0.567-4.759-2.247-9.159-6.307-9.839-0.302-0.084-0.662-0.151-1.031-0.187l-0.027-0.002zM340.051 41.447c-38.354 0-75.707 17.6-105.167 49.553-1.48 1.702-2.383 3.941-2.383 6.391 0 2.229 0.747 4.283 2.003 5.926l-0.017-0.024c1.228 1.693 3.201 2.781 5.427 2.781 2.015 0 3.821-0.891 5.047-2.301l0.007-0.008c26.703-28.969 60.43-44.926 95.064-44.926 68.229 0 131.246 70.439 146.562 163.822 0.774 4.721 4.664 7.799 8.687 6.893s6.666-5.458 5.892-10.179c-16.599-101.504-85.886-177.929-161.122-177.929zM997.114 100.479c10.934 0 10.953 16.996 0 16.996s-10.953-16.996 0-16.996zM1244.594 290.456c10.934 0 10.953 16.996 0 16.996s-10.953-16.996 0-16.996zM1333.672 116.097c10.934 0 10.953 16.996 0 16.996s-10.953-16.996 0-16.996zM1583.078 123.896c10.934 0 10.953 16.996 0 16.996s-10.953-16.996 0-16.996zM1018.888 108.43c7.289 0 7.308 11.331 0 11.331s-7.308-11.331 0-11.331zM1377.238 236.031c7.289 0 7.308 11.331 0 11.331s-7.308-11.331 0-11.331zM1309.915 90.301c7.289 0 7.308 11.331 0 11.331s-7.308-11.331 0-11.331zM1569.273 79.876c7.289 0 7.308 11.331 0 11.331s-7.308-11.331 0-11.331z" />
<glyph unicode="&#xe614;" glyph-name="idcard" d="M163.8 247.8v-10.44h112.4v10.44c-0.045 25.917-21.043 46.915-46.956 46.96h-18.484c-25.917-0.045-46.915-21.043-46.96-46.956v-0.004zM216.72 310.76h6.56c14.387 1.702 25.44 13.826 25.44 28.532 0 15.862-12.858 28.72-28.72 28.72s-28.72-12.858-28.72-28.72c0-14.706 11.053-26.83 25.304-28.519l0.136-0.013zM280 428h-120c-17.673 0-32-14.327-32-32v0-186.68c0-17.673 14.327-32 32-32v0h120c17.673 0 32 14.327 32 32v0 186.68c0 17.673-14.327 32-32 32v0zM175.28 339.28c0.007 24.693 20.026 44.708 44.72 44.708 24.698 0 44.72-20.022 44.72-44.72 0-12.694-5.289-24.153-13.784-32.293l-0.016-0.015c28-12 41.28-35 41.28-59.2v-18.44c0-4.418-3.582-8-8-8v0h-128.4c-4.418 0-8 3.582-8 8v0 18.44c0 24 12.96 47.28 41.28 59.2-8.469 8.187-13.744 19.632-13.8 32.309v0.011zM469.36 689.36v-145.36h117.28v145.36c0 32.386-26.254 58.64-58.64 58.64s-58.64-26.254-58.64-58.64v0zM512 659.12c-17.916 0-32.44 14.524-32.44 32.44s14.524 32.44 32.44 32.44c17.916 0 32.44-14.524 32.44-32.44v0c-0.023-17.907-14.533-32.417-32.438-32.44h-0.002zM229.24 294.76h-16c25.917-0.045 46.915-21.043 46.96-46.956v-10.444h16v10.44c-0.045 25.917-21.043 46.915-46.956 46.96h-0.004zM220 368c-2.854-0.006-5.606-0.43-8.203-1.212l0.203 0.052c12.078-3.56 20.743-14.548 20.743-27.56s-8.666-24-20.541-27.509l-0.203-0.051c1.341-0.411 2.94-0.748 4.582-0.946l0.138-0.014h6.56c14.339 1.749 25.338 13.85 25.338 28.52 0 15.826-12.8 28.662-28.613 28.72h-0.006zM280 428h-20c17.673 0 32-14.327 32-32v0-143.24c0-1.64 0.2-3.32 0.2-4.96v-18.44c-0.005-0.612-0.077-1.205-0.211-1.774l0.011 0.054v-18.28c0-17.673-14.327-32-32-32v0h20c17.673 0 32 14.327 32 32v0 186.64c0 17.673-14.327 32-32 32v0zM528 748c-5.705-0.016-11.211-0.847-16.413-2.385l0.413 0.105c24.784-7.2 42.594-29.699 42.6-56.359v-145.361h32v145.36c0 0.012 0 0.026 0 0.040 0 32.364-26.236 58.6-58.6 58.6v0zM944 628h-357.36v-84h37.36c4.418 0 8-3.582 8-8s-3.582-8-8-8v0h-224c-4.418 0-8 3.582-8 8s3.582 8 8 8v0h37.36v84h-337.36c-17.673 0-32-14.327-32-32v0-544c0-17.673 14.327-32 32-32v0h844c17.673 0 32 14.327 32 32v0 544c0 17.673-14.327 32-32 32v0zM328 396v-186.68c0-26.51-21.49-48-48-48v0h-120c-26.51 0-48 21.49-48 48v0 186.68c0 26.51 21.49 48 48 48v0h120c26.51 0 48-21.49 48-48v0zM944 628h-20c17.673 0 32-14.327 32-32v0-544c0-17.673-14.327-32-32-32v0h20c17.673 0 32 14.327 32 32v0 544c0 17.673-14.327 32-32 32v0zM254.32 307.72c7.686 8.302 12.4 19.45 12.4 31.7 0 25.803-20.917 46.72-46.72 46.72s-46.72-20.917-46.72-46.72c0-12.25 4.714-23.399 12.428-31.731l-0.028 0.031c-23.675-10.075-39.977-33.131-40-59.997v-18.443c0-5.523 4.477-10 10-10v0h128.4c5.523 0 10 4.477 10 10v0 18.44c0 0.014 0 0.031 0 0.047 0 26.799-16.198 49.814-39.338 59.79l-0.422 0.162zM220 366c14.664-0.122 26.504-12.038 26.504-26.719 0-13.609-10.175-24.842-23.332-26.507l-0.132-0.014h-6.080c-13.289 1.678-23.464 12.911-23.464 26.521 0 14.681 11.84 26.597 26.492 26.719h0.012zM274.2 239.32h-108.4v8.44c0.045 24.812 20.148 44.915 44.956 44.96h18.444c24.812-0.045 44.915-20.148 44.96-44.956v-0.004zM944 646h-355.36v43.36c0 42.327-34.313 76.64-76.64 76.64s-76.64-34.313-76.64-76.64v0-43.36h-355.36c-27.605-0.023-49.977-22.395-50-49.998v-544.002c0.023-27.605 22.395-49.977 49.998-50h864.002c27.605 0.023 49.977 22.395 50 49.998v544.002c-0.023 27.605-22.395 49.977-49.998 50h-0.002zM455.36 689.36c0 31.281 25.359 56.64 56.64 56.64s56.64-25.359 56.64-56.64v-143.36h-113.28zM974 52c-0.023-16.559-13.441-29.977-29.998-30h-864.002c-16.559 0.023-29.977 13.441-30 29.998v544.002c0.023 16.559 13.441 29.977 29.998 30h355.362v-80h-35.36c-5.523 0-10-4.477-10-10s4.477-10 10-10v0h224c5.523 0 10 4.477 10 10s-4.477 10-10 10v0h-35.36v80h355.36c16.559-0.023 29.977-13.441 30-29.998v-0.002zM280 446h-120c-27.605-0.023-49.977-22.395-50-49.998v-186.682c0.023-27.605 22.395-49.977 49.998-50h120.002c27.605 0.023 49.977 22.395 50 49.998v186.682c-0.023 27.605-22.395 49.977-49.998 50h-0.002zM310 209.32c-0.023-16.559-13.441-29.977-29.998-30h-120.002c-16.559 0.023-29.977 13.441-30 29.998v186.682c0.023 16.559 13.441 29.977 29.998 30h120.002c16.559-0.023 29.977-13.441 30-29.998v-0.002zM904 417.68h-504c-5.523 0-10-4.477-10-10s4.477-10 10-10v0h504c5.523 0 10 4.477 10 10s-4.477 10-10 10v0zM904 328.8h-504c-5.523 0-10-4.477-10-10s4.477-10 10-10v0h504c5.523 0 10 4.477 10 10s-4.477 10-10 10v0zM904 240h-504c-5.523 0-10-4.477-10-10s4.477-10 10-10v0h504c5.523 0 10 4.477 10 10s-4.477 10-10 10v0zM904 151h-504c-5.523 0-10-4.477-10-10s4.477-10 10-10v0h504c5.523 0 10 4.477 10 10s-4.477 10-10 10v0zM512 726c-19.021 0-34.44-15.419-34.44-34.44s15.419-34.44 34.44-34.44c19.021 0 34.44 15.419 34.44 34.44v0c-0.023 19.012-15.428 34.417-34.438 34.44h-0.002zM512 677.12c-7.975 0-14.44 6.465-14.44 14.44s6.465 14.44 14.44 14.44c7.975 0 14.44-6.465 14.44-14.44v0c0-7.975-6.465-14.44-14.44-14.44v0zM769.32-38h-16v16c0 2.209-1.791 4-4 4s-4-1.791-4-4v0-16h-16c-2.209 0-4-1.791-4-4s1.791-4 4-4v0h16v-16c0-2.209 1.791-4 4-4s4 1.791 4 4v0 16h16c2.209 0 4 1.791 4 4s-1.791 4-4 4v0zM410 804h-16v16c0 2.209-1.791 4-4 4s-4-1.791-4-4v0-16h-16c-2.209 0-4-1.791-4-4s1.791-4 4-4v0h16v-16c0-2.209 1.791-4 4-4s4 1.791 4 4v0 16h16c2.209 0 4 1.791 4 4s-1.791 4-4 4v0zM765.32 736c-13.255 0-24 10.745-24 24s10.745 24 24 24c13.255 0 24-10.745 24-24v0c0-13.255-10.745-24-24-24v0zM765.32 776c-8.837 0-16-7.163-16-16s7.163-16 16-16c8.837 0 16 7.163 16 16v0c0 8.837-7.163 16-16 16v0zM80-66c-13.255 0-24 10.745-24 24s10.745 24 24 24c13.255 0 24-10.745 24-24v0c0-13.255-10.745-24-24-24v0zM80-26c-8.837 0-16-7.163-16-16s7.163-16 16-16c8.837 0 16 7.163 16 16v0c0 8.837-7.163 16-16 16v0zM458-44h-10.36l7.32 7.32c0.598 0.695 0.962 1.606 0.962 2.602 0 2.209-1.791 4-4 4-0.996 0-1.907-0.364-2.607-0.966l0.005 0.004-7.32-7.32v10.36c0 2.209-1.791 4-4 4s-4-1.791-4-4v0-10.36l-7.32 7.32c-0.695 0.598-1.606 0.962-2.602 0.962-2.209 0-4-1.791-4-4 0-0.996 0.364-1.907 0.966-2.607l-0.004 0.005 7.32-7.32h-10.36c-2.209 0-4-1.791-4-4s1.791-4 4-4v0h10.36l-7.32-7.32c-0.598-0.695-0.962-1.606-0.962-2.602 0-2.209 1.791-4 4-4 0.996 0 1.907 0.364 2.607 0.966l-0.005-0.004 7.32 7.32v-10.36c0-2.209 1.791-4 4-4s4 1.791 4 4v0 10.36l7.32-7.32c0.695-0.598 1.606-0.962 2.602-0.962 2.209 0 4 1.791 4 4 0 0.996-0.364 1.907-0.966 2.607l0.004-0.005-7.32 7.32h10.36c2.209 0 4 1.791 4 4s-1.791 4-4 4v0z" />
<glyph unicode="&#xe615;" glyph-name="laptop" d="M71.24 80.44h921.52l-74.48 216h-772.56zM620 112.44c0-4.418-3.582-8-8-8v0h-80c-4.418 0-8 3.582-8 8s3.582 8 8 8v0h80c4.418 0 8-3.582 8-8v0zM412 120.44h80c4.418 0 8-3.582 8-8s-3.582-8-8-8v0h-80c-4.418 0-8 3.582-8 8s3.582 8 8 8v0zM68 32.44c0-17.673 14.327-32 32-32v0h844c17.673 0 32 14.327 32 32v0 32h-908zM956 64.44v-32c0-17.673-14.327-32-32-32v0h20c17.673 0 32 14.327 32 32v0 32zM208 392.24h24.64v13.48c0 28 16.2 55.64 49.24 68.28-10.64 10.52-17.24 22.040-17.24 38.2 0 28.012 22.708 50.72 50.72 50.72s50.72-22.708 50.72-50.72v0c0-16.28-6.72-27.76-17.24-38.2 33.080-12.68 49.24-40.4 49.24-68.28v-13.48h24.64v214.64h-214.72zM406.64 606.88h16v-214.64h-16zM319.12 477.64c17.502 1.97 30.98 16.688 30.98 34.554 0 19.197-15.563 34.76-34.76 34.76s-34.76-15.563-34.76-34.76c0-17.866 13.478-32.583 30.821-34.539l0.159-0.015zM148 312.44h748v374.2h-748zM510.64 392.2h233.36c4.418 0 8-3.582 8-8s-3.582-8-8-8v0h-233.36c-4.418 0-8 3.582-8 8s3.582 8 8 8v0zM510.64 465.96h313.36c4.418 0 8-3.582 8-8s-3.582-8-8-8v0h-313.36c-4.418 0-8 3.582-8 8s3.582 8 8 8v0zM824 523.76h-313.36c-4.418 0-8 3.582-8 8s3.582 8 8 8v0h313.36c4.418 0 8-3.582 8-8s-3.582-8-8-8v0zM824 597.52h-233.36c-4.418 0-8 3.582-8 8s3.582 8 8 8v0h233.36c4.418 0 8-3.582 8-8s-3.582-8-8-8v0zM438.64 614.88v-230.64c0-4.418-3.582-8-8-8v0h-230.64c-4.418 0-8 3.582-8 8v0 230.64c0 4.418 3.582 8 8 8v0h230.64c4.418 0 8-3.582 8-8v0zM896 735.56c0 17.673-14.327 32-32 32v0h-684c-17.673 0-32-14.327-32-32v0-32.88h748zM864 767.56h-20c17.673 0 32-14.327 32-32v0-32.88h20v32.88c0 17.673-14.327 32-32 32v0zM918.28 296.44h-40l74.48-216h40l-74.48 216zM876 686.64h20v-374.2h-20zM326.040 461.64h-21.44c-30.928 0-56-25.072-56-56v0-13.48h133.44v13.48c0 30.928-25.072 56-56 56v0zM315.32 546.88c-2.842-0.008-5.6-0.357-8.237-1.010l0.237 0.050c15.404-3.753 26.66-17.432 26.66-33.74s-11.256-29.987-26.423-33.691l-0.237-0.049c1.176-0.301 2.63-0.568 4.112-0.744l0.168-0.016h7.6c17.342 2.109 30.645 16.741 30.645 34.48 0 19.149-15.502 34.677-34.641 34.72h-0.004zM326.040 461.64h-16c30.928 0 56-25.072 56-56v0-13.48h16v13.48c0 30.928-25.072 56-56 56v0zM430.64 624.88h-230.64c-5.523 0-10-4.477-10-10v0-230.64c0-5.523 4.477-10 10-10v0h230.64c5.523 0 10 4.477 10 10v0 230.64c0 5.523-4.477 10-10 10v0zM380 394.24h-129.36v11.48c0.045 29.783 24.177 53.915 53.956 53.96h21.484c29.78-0.068 53.897-24.214 53.92-53.998v-0.002zM282.6 512c0 0.011 0 0.024 0 0.037 0 18.071 14.649 32.72 32.72 32.72s32.72-14.649 32.72-32.72c0-16.788-12.644-30.623-28.928-32.503l-0.152-0.014h-7.28c-16.415 1.91-29.042 15.714-29.080 32.476v0.004zM420.64 394.080h-20.64v11.48c0 0.001 0 0.001 0 0.002 0 31.385-19.528 58.209-47.096 68.985l-0.504 0.173c9.659 9.56 15.64 22.82 15.64 37.476 0 29.116-23.604 52.72-52.72 52.72s-52.72-23.604-52.72-52.72c0-14.657 5.981-27.917 15.636-37.472l0.004-0.004c-28.052-10.922-47.582-37.693-47.64-69.033v-11.487h-20.6v210.68h210.64zM993.88 73.8c-0.081 0.553-0.193 1.039-0.339 1.51l0.019-0.070v0.44l-79.44 230.4v429.48c-0.023 27.619-22.418 50-50.040 50-0.028 0-0.056 0-0.084 0h-703.996c-27.605-0.023-49.977-22.395-50-49.998v-429.442l-79.44-230.4v-0.44c-0.127-0.401-0.239-0.887-0.313-1.386l-0.007-0.054v-41.36c0 0 0-0.001 0-0.001 0-27.538 22.244-49.88 49.745-50.039h864.015c27.605 0.023 49.977 22.395 50 49.998v40.522c0 0.16-0.080 0.56-0.12 0.84zM130 735.56c0.023 16.559 13.441 29.977 29.998 30h704.002c16.559-0.023 29.977-13.441 30-29.998v-30.882h-764zM130 684.68h764v-370.2h-764zM127.12 294.48h769.76l73.12-212h-916zM974 32.48c-0.023-16.559-13.441-29.977-29.998-30h-864.002c-16.559 0.023-29.977 13.441-30 29.998v30.002h924zM492 122.44h-80c-5.523 0-10-4.477-10-10s4.477-10 10-10v0h80c5.523 0 10 4.477 10 10s-4.477 10-10 10v0zM612 122.44h-80c-5.523 0-10-4.477-10-10s4.477-10 10-10v0h80c5.523 0 10 4.477 10 10s-4.477 10-10 10v0zM824 615.52h-233.36c-5.523 0-10-4.477-10-10s4.477-10 10-10v0h233.36c5.523 0 10 4.477 10 10s-4.477 10-10 10v0zM824 541.76h-313.36c-5.523 0-10-4.477-10-10s4.477-10 10-10v0h313.36c5.523 0 10 4.477 10 10s-4.477 10-10 10v0zM824 468h-313.36c-5.523 0-10-4.477-10-10s4.477-10 10-10v0h313.36c5.523 0 10 4.477 10 10s-4.477 10-10 10v0zM744 394.24h-233.36c-5.523 0-10-4.477-10-10s4.477-10 10-10v0h233.36c5.523 0 10 4.477 10 10s-4.477 10-10 10v0zM471.32 830.28h-16v16c0 2.209-1.791 4-4 4s-4-1.791-4-4v0-16h-16c-2.209 0-4-1.791-4-4s1.791-4 4-4v0h16v-16c0-2.209 1.791-4 4-4s4 1.791 4 4v0 16h16c2.209 0 4 1.791 4 4s-1.791 4-4 4v0zM87.32 336.44h-16v16c0 2.209-1.791 4-4 4s-4-1.791-4-4v0-16h-16c-2.209 0-4-1.791-4-4s1.791-4 4-4v0h16v-16c0-2.209 1.791-4 4-4s4 1.791 4 4v0 16h16c2.209 0 4 1.791 4 4s-1.791 4-4 4v0zM100-54.68h-16v16c0 2.209-1.791 4-4 4s-4-1.791-4-4v0-16h-16c-2.209 0-4-1.791-4-4s1.791-4 4-4v0h16v-16c0-2.209 1.791-4 4-4s4 1.791 4 4v0 16h16c2.209 0 4 1.791 4 4s-1.791 4-4 4v0zM87.32 586.88h-16v16c0 2.209-1.791 4-4 4s-4-1.791-4-4v0-16h-16c-2.209 0-4-1.791-4-4s1.791-4 4-4v0h16v-16c0-2.209 1.791-4 4-4s4 1.791 4 4v0 16h16c2.209 0 4 1.791 4 4s-1.791 4-4 4v0zM916-54.68h-16v16c0 2.209-1.791 4-4 4s-4-1.791-4-4v0-16h-16c-2.209 0-4-1.791-4-4s1.791-4 4-4v0h16v-16c0-2.209 1.791-4 4-4s4 1.791 4 4v0 16h16c2.209 0 4 1.791 4 4s-1.791 4-4 4v0zM754 802.8c-13.255 0-24 10.745-24 24s10.745 24 24 24c13.255 0 24-10.745 24-24v0c0-13.255-10.745-24-24-24v0zM754 842.8c-8.837 0-16-7.163-16-16s7.163-16 16-16c8.837 0 16 7.163 16 16v0c0 8.837-7.163 16-16 16v0zM570-82.68c-13.255 0-24 10.745-24 24s10.745 24 24 24c13.255 0 24-10.745 24-24v0c0-13.255-10.745-24-24-24v0zM570-42.68c-8.837 0-16-7.163-16-16s7.163-16 16-16c8.837 0 16 7.163 16 16v0c0 8.837-7.163 16-16 16v0zM952 638.64c-13.255 0-24 10.745-24 24s10.745 24 24 24c13.255 0 24-10.745 24-24v0c0-13.255-10.745-24-24-24v0zM952 678.64c-8.837 0-16-7.163-16-16s7.163-16 16-16c8.837 0 16 7.163 16 16v0c0 8.837-7.163 16-16 16v0z" />
<glyph unicode="&#xe616;" glyph-name="ziyuan1" d="M0 384c0-282.77 229.23-512 512-512s512 229.23 512 512v0c0 282.77-229.23 512-512 512s-512-229.23-512-512v0zM354.611 586.65h308.941q10.24 0 10.24-10.24v-384.922q0-10.24-10.24-10.24h-308.941q-10.24 0-10.24 10.24v384.922q0 10.24 10.24 10.24zM388.915 528.179h141.619v-21.299h-141.619zM388.915 434.79h240.23v-21.299h-240.23zM388.915 341.709h240.23v-21.299h-240.23zM388.915 255.181h240.23v-21.299h-240.23zM496.845 260.403l-51.712-16.384c-0.896-0.284-1.926-0.448-2.995-0.448-5.655 0-10.24 4.585-10.24 10.24 0 1.379 0.273 2.694 0.767 3.895l-0.025-0.068 19.763 47.616c0.558 1.276 1.318 2.364 2.251 3.275l249.756 249.551c1.851 1.84 4.402 2.978 7.219 2.978s5.368-1.137 7.22-2.978v0l31.642-30.72c1.84-1.851 2.978-4.402 2.978-7.219s-1.137-5.368-2.978-7.22v0l-249.446-249.958c-1.14-1.15-2.549-2.031-4.126-2.54l-0.072-0.020zM470.385 331.858l53.002-53.002-5.356-5.356-53.002 53.002zM484.751 346.266l53.002-53.002-5.366-5.356-53.002 53.002zM498.821 360.223l53.002-53.002-5.356-5.356-53.002 53.002z" />
<glyph unicode="&#xe750;" glyph-name="shouyefill" d="M982.029 491.595l-408.706 320.462c-34.919 27.694-89.619 27.694-124.538 0l-405.609-320.634c-13.933-11.009-16.169-31.135-5.332-44.896s31.135-16.169 44.896-5.332l13.073 10.321v-387.548c0-54.873 56.937-95.984 107.853-95.984h639.892c50.228 0 84.115 38.531 84.115 95.984v388.58l14.449-11.353c5.848-4.644 12.729-6.881 19.782-6.881 9.461 0 18.922 4.128 25.286 12.213 11.181 13.933 8.601 34.059-5.16 45.068zM607.898 98.887v-66.741h-191.968v179.067c0 37.155 30.102 77.234 95.984 77.234 66.053 0 95.984-40.079 95.984-77.234v-112.325z" />
<glyph unicode="&#xe751;" glyph-name="shouye" d="M979.792 491.423l-405.609 320.634c-34.919 27.694-89.619 27.694-124.538 0l-405.437-320.634c-13.933-11.009-16.169-31.135-5.332-44.896s30.619-16.169 44.552-5.332l12.557 10.321v-387.548c0-54.873 57.969-95.984 108.713-95.984h639.892c50.228 0 83.255 38.531 83.255 95.984v386.172l11.697-8.945c5.848-4.644 13.073-6.881 20.126-6.881 9.461 0 18.922 4.128 25.286 12.213 11.009 13.761 8.773 33.887-5.16 44.896zM479.919 31.973v177.519c0 8.773 15.997 13.245 31.995 13.245s31.995-4.472 31.995-13.245v-177.347l-63.989-0.172zM864.027 63.968c0-21.158-5.848-31.995-19.266-31.995h-236.175c0 0.516-0.688 0.86-0.688 1.376v176.142c0 37.155-29.93 77.234-95.984 77.234s-95.984-40.079-95.984-77.234v-176.142c0-0.516 0.86-0.86 0.86-1.376h-211.921c-20.126 0-44.724 17.373-44.724 31.995v438.292l328.719 259.569c11.869 9.289 33.199 9.289 44.896 0l330.095-261.117v-436.744z" />
<glyph unicode="&#xe752;" glyph-name="shouyefill1" d="M982.029 491.595l-408.706 320.462c-34.919 27.694-89.619 27.694-124.538 0l-405.609-320.634c-13.933-11.009-16.169-31.135-5.332-44.896s31.135-16.169 44.896-5.332l13.073 10.321v-387.548c0-54.873 56.937-95.984 107.853-95.984h639.892c50.228 0 84.115 38.531 84.115 95.984v388.58l14.449-11.353c5.848-4.644 12.729-6.881 19.782-6.881 9.461 0 18.922 4.128 25.286 12.213 11.181 13.933 8.601 34.059-5.16 45.068zM607.898 98.887v-66.741h-191.968v179.067c0 37.155 30.102 77.234 95.984 77.234 66.053 0 95.984-40.079 95.984-77.234v-112.325z" />
<glyph unicode="&#xe753;" glyph-name="shouye1" d="M979.792 491.423l-405.609 320.634c-34.919 27.694-89.619 27.694-124.538 0l-405.437-320.634c-13.933-11.009-16.169-31.135-5.332-44.896s30.619-16.169 44.552-5.332l12.557 10.321v-387.548c0-54.873 57.969-95.984 108.713-95.984h639.892c50.228 0 83.255 38.531 83.255 95.984v386.172l11.697-8.945c5.848-4.644 13.073-6.881 20.126-6.881 9.461 0 18.922 4.128 25.286 12.213 11.009 13.761 8.773 33.887-5.16 44.896zM479.919 31.973v177.519c0 8.773 15.997 13.245 31.995 13.245s31.995-4.472 31.995-13.245v-177.347l-63.989-0.172zM864.027 63.968c0-21.158-5.848-31.995-19.266-31.995h-236.175c0 0.516-0.688 0.86-0.688 1.376v176.142c0 37.155-29.93 77.234-95.984 77.234s-95.984-40.079-95.984-77.234v-176.142c0-0.516 0.86-0.86 0.86-1.376h-211.921c-20.126 0-44.724 17.373-44.724 31.995v438.292l328.719 259.569c11.869 9.289 33.199 9.289 44.896 0l330.095-261.117v-436.744z" />
<glyph unicode="&#xe758;" glyph-name="tongzhifill" d="M889.829 146.363c-1.204 1.72-119.206 165.822-119.206 287.436 0 168.402-76.202 254.753-162.725 286.92v15.309c0 52.98-43.176 95.984-95.984 95.984s-95.984-43.176-95.984-95.984v-15.309c-86.523-32.167-162.725-118.518-162.725-286.92 0-121.27-118.002-285.199-119.206-286.92-5.332-7.569-7.397-16.857-5.332-25.974 2.064-8.945 7.913-16.685 15.997-20.986 5.676-3.096 107.337-57.281 233.423-84.459 21.33-66.397 73.966-111.293 133.655-111.293s112.325 44.896 133.655 111.293c126.086 27.178 227.747 81.019 233.423 83.943 8.257 4.472 13.933 12.041 16.169 20.986s0.344 18.406-5.16 25.974zM479.919 736.027c0 17.545 14.449 31.995 31.995 31.995s31.995-14.449 31.995-31.995v-0.86c-7.225 0.516-14.277 0.86-21.33 0.86h-21.33c-7.053 0-14.105-0.344-21.33-0.86v0.86zM511.914-32.016c-22.362 0-43.176 13.417-57.969 35.263 19.266-2.064 38.531-3.268 57.969-3.268s38.875 1.376 57.969 3.268c-14.793-21.846-35.607-35.263-57.969-35.263z" />
<glyph unicode="&#xe759;" glyph-name="tongzhi" d="M889.829 146.363c-1.204 1.548-119.206 166.166-119.206 287.436 0 168.402-76.202 254.753-162.725 286.92v15.309c0 52.98-43.176 95.984-95.984 95.984s-95.984-43.176-95.984-95.984v-16.685c-10.837-7.913-16.169-21.846-11.869-35.263 5.332-16.857 23.394-25.974 40.251-20.642 17.717 5.676 36.983 8.429 56.937 8.429h21.33c115.249 0 184.055-89.103 184.055-238.24 0-108.025 72.934-235.315 110.261-293.456-57.453-26.146-183.023-76.202-304.809-76.202-121.442 0-247.356 50.4-304.809 76.546 37.327 57.969 110.089 184.915 110.089 293.112 0 62.441 11.525 114.217 34.575 153.953 8.773 15.309 3.612 34.919-11.697 43.692-15.481 8.945-34.919 3.612-43.692-11.697-28.554-49.54-43.176-112.153-43.176-185.947 0-121.27-118.002-285.199-119.206-286.92-5.332-7.569-7.397-16.857-5.332-25.974 2.064-8.945 7.913-16.685 15.997-20.986 5.676-3.096 107.337-57.281 233.423-84.459 21.33-66.397 73.966-111.293 133.655-111.293s112.325 44.896 133.655 111.293c126.086 27.178 227.747 81.019 233.423 83.943 8.085 4.472 13.933 12.041 16.169 20.986 2.064 9.117 0.172 18.578-5.332 26.146zM501.249 736.027c-7.225 0-14.277-1.032-21.33-1.548v1.548c0 17.545 14.449 31.995 31.995 31.995s31.995-14.449 31.995-31.995v-0.86c-7.225 0.516-14.277 0.86-21.33 0.86h-21.33zM511.914-32.016c-22.362 0-43.176 13.417-57.969 35.263 19.266-2.064 38.531-3.268 57.969-3.268s38.875 1.376 57.969 3.268c-14.793-21.846-35.607-35.263-57.969-35.263z" />
<glyph unicode="&#xe75a;" glyph-name="tongzhifill1" d="M889.829 146.363c-1.204 1.72-119.206 165.822-119.206 287.436 0 168.402-76.202 254.753-162.725 286.92v15.309c0 52.98-43.176 95.984-95.984 95.984s-95.984-43.176-95.984-95.984v-15.309c-86.523-32.167-162.725-118.518-162.725-286.92 0-121.27-118.002-285.199-119.206-286.92-5.332-7.569-7.397-16.857-5.332-25.974 2.064-8.945 7.913-16.685 15.997-20.986 5.676-3.096 107.337-57.281 233.423-84.459 21.33-66.397 73.966-111.293 133.655-111.293s112.325 44.896 133.655 111.293c126.086 27.178 227.747 81.019 233.423 83.943 8.257 4.472 13.933 12.041 16.169 20.986s0.344 18.406-5.16 25.974zM479.919 736.027c0 17.545 14.449 31.995 31.995 31.995s31.995-14.449 31.995-31.995v-0.86c-7.225 0.516-14.277 0.86-21.33 0.86h-21.33c-7.053 0-14.105-0.344-21.33-0.86v0.86zM511.914-32.016c-22.362 0-43.176 13.417-57.969 35.263 19.266-2.064 38.531-3.268 57.969-3.268s38.875 1.376 57.969 3.268c-14.793-21.846-35.607-35.263-57.969-35.263z" />
<glyph unicode="&#xe75b;" glyph-name="tongzhi1" d="M889.829 146.363c-1.204 1.548-119.206 166.166-119.206 287.436 0 168.402-76.202 254.753-162.725 286.92v15.309c0 52.98-43.176 95.984-95.984 95.984s-95.984-43.176-95.984-95.984v-16.685c-10.837-7.913-16.169-21.846-11.869-35.263 5.332-16.857 23.394-25.974 40.251-20.642 17.717 5.676 36.983 8.429 56.937 8.429h21.33c115.249 0 184.055-89.103 184.055-238.24 0-108.025 72.934-235.315 110.261-293.456-57.453-26.146-183.023-76.202-304.809-76.202-121.442 0-247.356 50.4-304.809 76.546 37.327 57.969 110.089 184.915 110.089 293.112 0 62.441 11.525 114.217 34.575 153.953 8.773 15.309 3.612 34.919-11.697 43.692-15.481 8.945-34.919 3.612-43.692-11.697-28.554-49.54-43.176-112.153-43.176-185.947 0-121.27-118.002-285.199-119.206-286.92-5.332-7.569-7.397-16.857-5.332-25.974 2.064-8.945 7.913-16.685 15.997-20.986 5.676-3.096 107.337-57.281 233.423-84.459 21.33-66.397 73.966-111.293 133.655-111.293s112.325 44.896 133.655 111.293c126.086 27.178 227.747 81.019 233.423 83.943 8.085 4.472 13.933 12.041 16.169 20.986 2.064 9.117 0.172 18.578-5.332 26.146zM501.249 736.027c-7.225 0-14.277-1.032-21.33-1.548v1.548c0 17.545 14.449 31.995 31.995 31.995s31.995-14.449 31.995-31.995v-0.86c-7.225 0.516-14.277 0.86-21.33 0.86h-21.33zM511.914-32.016c-22.362 0-43.176 13.417-57.969 35.263 19.266-2.064 38.531-3.268 57.969-3.268s38.875 1.376 57.969 3.268c-14.793-21.846-35.607-35.263-57.969-35.263z" />
<glyph unicode="&#xe762;" glyph-name="xinxifill" d="M511.914 828.914c-247.012 0-447.925-172.358-447.925-384.108 0-116.454 62.957-226.027 174.078-301.369l84.115-51.948c-3.612-23.566-18.75-74.482-33.371-115.938-4.3-12.041-0.86-25.458 8.429-34.231 6.020-5.504 13.761-8.429 21.674-8.429 4.472 0 8.773 0.86 13.073 2.752 36.467 16.169 147.416 68.978 187.495 125.398 243.572 3.44 440.356 174.422 440.356 383.935 0.172 211.577-200.74 383.935-447.925 383.935zM580.204 352.091h-195.236c-17.717 0-31.995 14.277-31.995 31.995s14.277 31.995 31.995 31.995h195.236c17.717 0 31.995-14.277 31.995-31.995s-14.277-31.995-31.995-31.995zM640.925 480.070h-255.957c-17.717 0-31.995 14.277-31.995 31.995s14.277 31.995 31.995 31.995h255.957c17.717 0 31.995-14.277 31.995-31.995s-14.277-31.995-31.995-31.995z" />
<glyph unicode="&#xe763;" glyph-name="xinxi" d="M639.892 480.070h-255.957c-17.717 0-31.995 14.277-31.995 31.995s14.277 31.995 31.995 31.995h255.957c17.717 0 31.995-14.277 31.995-31.995s-14.277-31.995-31.995-31.995zM579.172 352.091h-195.236c-17.717 0-31.995 14.277-31.995 31.995s14.449 31.995 31.995 31.995h195.236c17.717 0 31.995-14.277 31.995-31.995s-14.277-31.995-31.995-31.995zM962.247 448.075c0 211.749-200.912 383.935-447.925 383.935s-448.097-172.186-448.097-383.935c0-116.454 62.957-226.027 172.874-300.681 14.621-9.977 34.575-6.193 44.38 8.429 9.977 14.621 6.193 34.575-8.429 44.38-92.028 62.441-144.836 152.749-144.836 247.7 0 176.486 172.186 319.946 383.935 319.946s383.935-143.632 383.935-319.946-172.186-319.946-383.935-319.946c-2.064 0-3.612-0.688-5.504-1.204-15.137 2.752-30.446-5.16-35.779-20.126-6.193-17.373-46.444-46.616-94.092-73.794 17.373 58.141 9.117 70.698 3.44 78.954-6.709 9.977-17.889 15.997-29.93 15.997-17.717 0-31.995-14.277-31.995-31.995 0-5.848 1.548-11.181 4.3-15.997-3.268-18.233-17.201-60.893-33.027-99.768-4.988-12.041-2.064-25.974 7.397-35.091 6.020-5.848 14.105-8.945 22.19-8.945 4.3 0 8.773 0.86 13.073 2.752 36.467 16.341 147.588 69.15 187.667 125.57 243.4 3.612 440.356 174.078 440.356 383.763z" />
<glyph unicode="&#xe764;" glyph-name="xinxifill1" d="M511.914 828.914c-247.012 0-447.925-172.358-447.925-384.108 0-116.454 62.957-226.027 174.078-301.369l84.115-51.948c-3.612-23.566-18.75-74.482-33.371-115.938-4.3-12.041-0.86-25.458 8.429-34.231 6.020-5.504 13.761-8.429 21.674-8.429 4.472 0 8.773 0.86 13.073 2.752 36.467 16.169 147.416 68.978 187.495 125.398 243.572 3.44 440.356 174.422 440.356 383.935 0.172 211.577-200.74 383.935-447.925 383.935zM580.204 352.091h-195.236c-17.717 0-31.995 14.277-31.995 31.995s14.277 31.995 31.995 31.995h195.236c17.717 0 31.995-14.277 31.995-31.995s-14.277-31.995-31.995-31.995zM640.925 480.070h-255.957c-17.717 0-31.995 14.277-31.995 31.995s14.277 31.995 31.995 31.995h255.957c17.717 0 31.995-14.277 31.995-31.995s-14.277-31.995-31.995-31.995z" />
<glyph unicode="&#xe765;" glyph-name="xinxi1" d="M639.892 480.070h-255.957c-17.717 0-31.995 14.277-31.995 31.995s14.277 31.995 31.995 31.995h255.957c17.717 0 31.995-14.277 31.995-31.995s-14.277-31.995-31.995-31.995zM579.172 352.091h-195.236c-17.717 0-31.995 14.277-31.995 31.995s14.449 31.995 31.995 31.995h195.236c17.717 0 31.995-14.277 31.995-31.995s-14.277-31.995-31.995-31.995zM962.247 448.075c0 211.749-200.912 383.935-447.925 383.935s-448.097-172.186-448.097-383.935c0-116.454 62.957-226.027 172.874-300.681 14.621-9.977 34.575-6.193 44.38 8.429 9.977 14.621 6.193 34.575-8.429 44.38-92.028 62.441-144.836 152.749-144.836 247.7 0 176.486 172.186 319.946 383.935 319.946s383.935-143.632 383.935-319.946-172.186-319.946-383.935-319.946c-2.064 0-3.612-0.688-5.504-1.204-15.137 2.752-30.446-5.16-35.779-20.126-6.193-17.373-46.444-46.616-94.092-73.794 17.373 58.141 9.117 70.698 3.44 78.954-6.709 9.977-17.889 15.997-29.93 15.997-17.717 0-31.995-14.277-31.995-31.995 0-5.848 1.548-11.181 4.3-15.997-3.268-18.233-17.201-60.893-33.027-99.768-4.988-12.041-2.064-25.974 7.397-35.091 6.020-5.848 14.105-8.945 22.19-8.945 4.3 0 8.773 0.86 13.073 2.752 36.467 16.341 147.588 69.15 187.667 125.57 243.4 3.612 440.356 174.078 440.356 383.763z" />
<glyph unicode="&#xe787;" glyph-name="yonghufill" d="M631.12 276.577l0.344 16.685c79.299 55.389 117.83 153.093 117.83 297.756 0 139.503-87.211 222.758-233.423 222.758h-7.913c-146.040 0-233.423-83.255-233.423-222.758 0-143.976 38.875-241.68 118.862-297.412v-16.857c-133.139-17.889-266.622-70.87-266.622-151.888 0-113.357 129.527-170.81 385.14-170.81s385.14 57.453 385.14 170.81c0 80.847-133.139 133.827-265.934 151.716z" />
<glyph unicode="&#xe788;" glyph-name="yonghu" d="M511.914-45.605c-255.613 0-385.312 57.453-385.312 170.81 0 80.847 133.655 133.999 266.622 151.888v16.857c-79.987 55.905-118.862 153.437-118.862 297.24 0 139.331 87.211 222.586 233.423 222.586h7.913c146.212 0 233.423-83.255 233.423-222.586 0-54.184 0-214.674-117.83-297.412l-0.344-16.685c132.967-18.061 266.106-71.042 266.106-151.716 0.172-113.529-129.527-170.982-385.14-170.982zM507.958 754.432c-79.471 0-174.25-28.382-174.25-163.241 0-129.699 34.231-213.47 104.585-255.785 8.945-5.332 14.277-14.965 14.277-25.286v-59.345c0-15.309-11.525-28.038-26.662-29.414-144.32-14.449-239.96-67.43-239.96-95.984 0-92.2 177.347-111.637 325.967-111.637 148.792 0 325.967 19.266 325.967 111.637 0 28.726-95.64 81.535-239.96 95.984-15.481 1.548-27.006 14.621-26.662 30.102l1.376 59.345c0.172 10.149 5.676 19.438 14.277 24.77 70.526 42.487 103.208 123.678 103.208 255.785 0 135.031-94.78 163.241-174.25 163.241l-7.913-0.172z" />
<glyph unicode="&#xe789;" glyph-name="yonghufill1" d="M631.12 276.577l0.344 16.685c79.299 55.389 117.83 153.093 117.83 297.756 0 139.503-87.211 222.758-233.423 222.758h-7.913c-146.040 0-233.423-83.255-233.423-222.758 0-143.976 38.875-241.68 118.862-297.412v-16.857c-133.139-17.889-266.622-70.87-266.622-151.888 0-113.357 129.527-170.81 385.14-170.81s385.14 57.453 385.14 170.81c0 80.847-133.139 133.827-265.934 151.716z" />
<glyph unicode="&#xe78a;" glyph-name="yonghu1" d="M511.914-45.605c-255.613 0-385.312 57.453-385.312 170.81 0 80.847 133.655 133.999 266.622 151.888v16.857c-79.987 55.905-118.862 153.437-118.862 297.24 0 139.331 87.211 222.586 233.423 222.586h7.913c146.212 0 233.423-83.255 233.423-222.586 0-54.184 0-214.674-117.83-297.412l-0.344-16.685c132.967-18.061 266.106-71.042 266.106-151.716 0.172-113.529-129.527-170.982-385.14-170.982zM507.958 754.432c-79.471 0-174.25-28.382-174.25-163.241 0-129.699 34.231-213.47 104.585-255.785 8.945-5.332 14.277-14.965 14.277-25.286v-59.345c0-15.309-11.525-28.038-26.662-29.414-144.32-14.449-239.96-67.43-239.96-95.984 0-92.2 177.347-111.637 325.967-111.637 148.792 0 325.967 19.266 325.967 111.637 0 28.726-95.64 81.535-239.96 95.984-15.481 1.548-27.006 14.621-26.662 30.102l1.376 59.345c0.172 10.149 5.676 19.438 14.277 24.77 70.526 42.487 103.208 123.678 103.208 255.785 0 135.031-94.78 163.241-174.25 163.241l-7.913-0.172z" />
<glyph unicode="&#xe900;" glyph-name="mail-envelope" d="M192.115 640h671.77c35.643 0 64.115-28.569 64.115-63.81v-384.38c0-35.185-28.705-63.81-64.115-63.81h-671.77c-35.643 0-64.115 28.569-64.115 63.81v384.38c0 35.185 28.705 63.81 64.115 63.81zM192.098 608c-17.727 0-32.098-14.398-32.098-32.219v-383.562c0-17.794 14.045-32.219 32.098-32.219h671.803c17.727 0 32.098 14.398 32.098 32.219v383.562c0 17.794-14.045 32.219-32.098 32.219h-671.803zM736 544h96v-96h-96v96zM768 512v-32h32v32h-32zM224 320v-32h256v32h-256zM224 544v-32h128v32h-128zM224 256v-32h256v32h-256z" />
<glyph unicode="&#xe901;" glyph-name="mail-envelope1" d="M192.115 640h671.77c35.643 0 64.115-28.569 64.115-63.81v-384.38c0-35.185-28.705-63.81-64.115-63.81h-671.77c-35.643 0-64.115 28.569-64.115 63.81v384.38c0 35.185 28.705 63.81 64.115 63.81zM224 544v-32h128v32h-128zM736 544v-96h96v96h-96zM768 512v-32h32v32h-32zM224 320v-32h256v32h-256zM224 256v-32h256v32h-256z" />
<glyph unicode="&#xe902;" glyph-name="key" d="M593.037 273.037l-145.037-145.037h-96v-96h-96v-96h-160v160l337.037 337.037c-11.016 29.564-17.037 61.56-17.037 94.963 0 150.221 121.779 272 272 272s272-121.779 272-272c0-150.221-121.779-272-272-272-33.403 0-65.399 6.021-94.963 17.037v0 0zM447.96 399.96l-319.96-319.96v-112h96v96h96v96h112l127.96 127.96c-47.513 25.397-86.603 64.487-112 112v0 0zM928 528c0 132.548-107.452 240-240 240s-240-107.452-240-240c0-132.548 107.452-240 240-240s240 107.452 240 240v0 0zM864 608v0 0c0-53.019-42.981-96-96-96s-96 42.981-96 96c0 53.019 42.981 96 96 96s96-42.981 96-96zM832 608c0 35.346-28.654 64-64 64s-64-28.654-64-64c0-35.346 28.654-64 64-64s64 28.654 64 64v0 0z" />
<glyph unicode="&#xe903;" glyph-name="key1" d="M593.037 273.037l-145.037-145.037h-96v-96h-96v-96h-160v160l337.037 337.037c-11.016 29.564-17.037 61.56-17.037 94.963 0 150.221 121.779 272 272 272s272-121.779 272-272c0-150.221-121.779-272-272-272-33.403 0-65.399 6.021-94.963 17.037v0 0zM864 608c0 53.019-42.981 96-96 96s-96-42.981-96-96c0-53.019 42.981-96 96-96s96 42.981 96 96v0z" />
<glyph unicode="&#xe904;" glyph-name="warning" d="M1010.432 57.248l-383.968 768c-21.664 43.36-65.952 70.752-114.464 70.752s-92.8-27.392-114.464-70.752l-383.968-768c-19.84-39.68-17.728-86.816 5.6-124.576 23.328-37.696 64.512-60.672 108.864-60.672h767.904c44.384 0 85.568 22.976 108.864 60.672 23.328 37.76 25.44 84.896 5.632 124.576zM575.936 32c0-17.696-14.304-32-32-32h-64c-17.696 0-32 14.304-32 32v64c0 17.696 14.304 32 32 32h64c17.696 0 32-14.304 32-32v-64zM575.936 288c0-17.696-14.304-32-32-32h-64c-17.696 0-32 14.304-32 32v320c0 17.664 14.304 32 32 32h64c17.696 0 32-14.336 32-32v-320z" />
<glyph unicode="&#xe905;" glyph-name="cloud" d="M1024 224c0-123.712-100.288-224-224-224h-576v0.8c-125.056 8.256-224 112.064-224 239.2 0 79.136 38.464 149.088 97.536 192.8-0.48 5.088-1.536 10.016-1.536 15.2 0 88.384 71.648 160 160 160 30.752 0 59.232-9.12 83.616-24.16 41.696 107.68 146.016 184.16 268.384 184.16 159.072 0 288-128.928 288-288 0-17.632-1.824-34.752-4.864-51.488 78.24-34.944 132.864-113.28 132.864-204.512z" />
<glyph unicode="&#xe906;" glyph-name="locked" d="M928-128h-832c-17.664 0-32 14.304-32 32v512c0 17.696 14.336 32 32 32h96v128c0 176.736 143.264 320 320 320s320-143.264 320-320v-128h96c17.696 0 32-14.304 32-32v-512c0-17.696-14.304-32-32-32zM704 592c0 97.216-85.984 176-192 176s-192-78.784-192-176v-144h384v144z" />
<glyph unicode="&#xe907;" glyph-name="inbox" d="M832 864c0 17.664-14.304 32-32 32h-576c-17.664 0-32-14.336-32-32l-192-480v-448c0-35.328 28.672-64 64-64h896c35.328 0 64 28.672 64 64v448l-192 480zM736 384l-96-160c0-17.696-14.304-32-32-32h-192c-17.696 0-32 14.304-32 32l-96 160h-160l164.576 384h438.88l164.544-384h-160z" />
<glyph unicode="&#xe908;" glyph-name="comment" d="M512 0.992c-20.768 0-51.168 23.36-71.328 25.504-57.504-48.224-117.408-106.272-198.848-136.448-35.552-15.072-66.080-23.808-74.016-14.304-10.656 12.384-26.752 29.568-29.6 34.176 0.16 6.848 8.448 1.44 17.472 11.168 49.152 20.672 80.896 74.016 102.24 139.232-153.952 77.152-257.92 221.888-257.92 388.096 0 247.072 229.248 447.392 512 447.392s512-200.288 512-447.392-229.248-447.424-512-447.424z" />
<glyph unicode="&#xe909;" glyph-name="mic1" d="M896 416h-1.568c-15.744-168.8-152.288-352-318.432-352v-128h192c17.696 0 32-14.304 32-32s-14.304-32-32-32h-512c-17.696 0-32 14.304-32 32s14.304 32 32 32h192v128c-166.144 0-302.656 183.2-318.432 352h-1.568v192c0 35.328 28.672 64 64 64s64-28.672 64-64v-160c0-141.376 114.624-256 256-256s256 114.624 256 256v160c0 35.328 28.672 64 64 64s64-28.672 64-64v-192zM512 320c-88.384 0-128 71.616-128 160v256c0 88.352 39.616 160 128 160s128-71.648 128-160v-256c0-88.384-39.616-160-128-160zM560 448c8.832 0 16 7.168 16 16 0 8.8-7.168 16-16 16s-16-7.2-16-16c0-8.832 7.168-16 16-16zM464 640c-8.832 0-16-7.2-16-16 0-8.832 7.168-16 16-16s16 7.168 16 16c0 8.8-7.168 16-16 16zM480 688c0 8.832-7.168 16-16 16s-16-7.168-16-16c0-8.832 7.168-16 16-16s16 7.168 16 16zM496 544c-8.832 0-16-7.2-16-16 0-8.832 7.168-16 16-16s16 7.168 16 16c0 8.8-7.168 16-16 16zM528 544c8.832 0 16 7.168 16 16 0 8.8-7.168 16-16 16s-16-7.2-16-16c0-8.832 7.168-16 16-16zM496 576c8.832 0 16 7.168 16 16 0 8.8-7.168 16-16 16s-16-7.2-16-16c0-8.832 7.168-16 16-16zM464 576c-8.832 0-16-7.2-16-16 0-8.832 7.168-16 16-16s16 7.168 16 16c0 8.8-7.168 16-16 16zM496 640c8.832 0 16 7.168 16 16s-7.168 16-16 16-16-7.168-16-16c0-8.832 7.168-16 16-16zM528 672c8.832 0 16 7.168 16 16s-7.168 16-16 16-16-7.168-16-16c0-8.832 7.168-16 16-16zM528 640c-8.832 0-16-7.2-16-16 0-8.832 7.168-16 16-16s16 7.168 16 16c0 8.8-7.168 16-16 16zM560 640c8.832 0 16 7.168 16 16s-7.168 16-16 16-16-7.168-16-16c0-8.832 7.168-16 16-16zM560 608c-8.832 0-16-7.2-16-16 0-8.832 7.168-16 16-16s16 7.168 16 16c0 8.8-7.168 16-16 16zM560 544c-8.832 0-16-7.2-16-16 0-8.832 7.168-16 16-16s16 7.168 16 16c0 8.8-7.168 16-16 16zM528 480c8.832 0 16 7.168 16 16 0 8.8-7.168 16-16 16s-16-7.2-16-16c0-8.832 7.168-16 16-16zM496 448c8.832 0 16 7.168 16 16 0 8.8-7.168 16-16 16s-16-7.2-16-16c0-8.832 7.168-16 16-16zM464 480c8.832 0 16 7.168 16 16 0 8.8-7.168 16-16 16s-16-7.2-16-16c0-8.832 7.168-16 16-16zM464 768c-8.832 0-16-7.168-16-16s7.168-16 16-16 16 7.168 16 16c0 8.832-7.168 16-16 16zM496 736c-8.832 0-16-7.168-16-16s7.168-16 16-16 16 7.168 16 16c0 8.832-7.168 16-16 16zM528 768c-8.832 0-16-7.168-16-16s7.168-16 16-16 16 7.168 16 16c0 8.832-7.168 16-16 16zM560 736c-8.832 0-16-7.168-16-16s7.168-16 16-16 16 7.168 16 16c0 8.832-7.168 16-16 16z" />
<glyph unicode="&#xe90a;" glyph-name="envelope" d="M928 768h-832c-53.024 0-96-42.976-96-96v-576c0-52.992 42.976-96 96-96h832c53.024 0 96 43.008 96 96v576c0 53.024-42.976 96-96 96zM87.712 64.32l-23.392 23.424 263.968 263.936 23.392-23.424-263.968-263.936zM936.288 64.32l-263.968 263.936 23.392 23.424 263.968-263.936-23.392-23.424zM544 277.6v-21.6h-64v21.6l-415.904 385.6 40.704 40.704 407.2-377.536 407.2 377.536 40.704-40.704-415.904-385.6z" />
<glyph unicode="&#xe90b;" glyph-name="briefcase" d="M928-128h-32v320h128v-224c0-52.992-42.976-96-96-96zM896 576h32c53.024 0 96-43.008 96-96v-256h-128v352zM192 192h256v-64c0-17.696 14.336-32 32-32h64c17.696 0 32 14.304 32 32v64h256v-320h-640v320zM576 224v96c0 17.696-14.304 32-32 32h-64c-17.664 0-32-14.304-32-32v-96h-256v352h64v80c0 132.544 114.624 240 256 240s256-107.456 256-240v-80h64v-352h-256zM640 640c0 70.688-57.312 128-128 128s-128-57.312-128-128v-64h256v64zM0-32v224h128v-320h-32c-53.024 0-96 43.008-96 96zM0 480c0 52.992 42.976 96 96 96h32v-352h-128v256z" />
<glyph unicode="&#xe90c;" glyph-name="cart1" d="M1021.248 723.2l-93.248-371.2c0-4.448-0.896-8.64-2.496-12.448-3.264-7.68-9.376-13.824-17.024-17.056-3.84-1.632-8.064-2.496-12.48-2.496h-608l25.6-128h550.4c17.696 0 32-14.304 32-32s-14.304-32-32-32h-576c-17.696 0-32 14.304-32 32l-121.6 608h-102.4c-17.664 0-32 14.336-32 32s14.336 32 32 32h128c17.696 0 32-14.336 32-32l6.4-32h793.6c17.696 0 32-14.336 32-32 0-4.576-1.024-8.864-2.752-12.8zM275.2 384h108.8v320h-172.8l64-320zM576 704h-160v-320h160v320zM768 704h-160v-320h160v320zM800 704v-320h72.096l81.056 320h-153.152zM352 64c53.024 0 96-43.008 96-96s-42.976-96-96-96-96 43.008-96 96 42.976 96 96 96zM352-64c17.696 0 32 14.304 32 32s-14.304 32-32 32-32-14.304-32-32 14.304-32 32-32zM800 64c53.024 0 96-43.008 96-96s-42.976-96-96-96-96 43.008-96 96 42.976 96 96 96zM800-64c17.696 0 32 14.304 32 32s-14.304 32-32 32-32-14.304-32-32 14.304-32 32-32z" />
<glyph unicode="&#xe90d;" glyph-name="contrast" d="M149.984 21.984c-199.968 199.936-199.968 524.128 0 724.064 199.936 199.968 524.128 199.968 724.064 0 199.968-199.936 199.968-524.128 0-724.064-199.968-199.968-524.128-199.968-724.064 0zM783.52 655.52l-543.040-543.040c149.984-149.984 393.088-149.984 543.072 0s149.952 393.088-0.032 543.040z" />
<glyph unicode="&#xe90e;" glyph-name="clock" d="M512 896c-282.784 0-512-229.248-512-512s229.216-512 512-512 512 229.248 512 512c0 282.752-229.216 512-512 512zM512 0c-212.064 0-384 171.936-384 384s171.936 384 384 384 384-171.936 384-384-171.936-384-384-384zM736 448h-160v224c0 17.664-14.304 32-32 32h-64c-17.696 0-32-14.336-32-32v-320c0-17.696 14.304-32 32-32h256c17.696 0 32 14.304 32 32v64c0 17.696-14.304 32-32 32z" />
<glyph unicode="&#xe90f;" glyph-name="user" d="M0-128v96c0 143.488 180.768 197.728 419.168 219.584-52.352 32.448-93.44 123.648-114.848 196.48-0.096 0-0.192-0.064-0.32-0.064-2.176 0-48 57.312-48 128 0 62.016-4.416 113.728 32.224 125.44-0.032 0.864-0.224 1.696-0.224 2.56 0 78.624 40.672 147.52 101.984 187.488 15.84 39.52 64.128 68.512 122.016 68.512s106.176-28.992 122.016-68.512c61.312-39.968 101.984-108.864 101.984-187.488 0-0.864-0.192-1.696-0.224-2.56 36.64-11.712 32.224-63.424 32.224-125.44 0-70.688-50.816-128-48-128-0.128 0-0.224 0.064-0.32 0.064-21.408-72.8-62.496-164.032-114.848-196.48 238.4-21.856 419.168-74.080 419.168-219.584v-96h-1024z" />
<glyph unicode="&#xe910;" glyph-name="cog" d="M863.68 300.32c68.992-51.424 128.128-98.496 128.128-98.496l-84.192-147.648-152.16 67.168-140.992-82.464c-9.536-86.944-18.272-166.88-18.272-166.88h-168.384l-18.688 167.392-138.944 82.656-153.824-67.904-84.16 147.648c0 0 58.144 46.848 126.976 98.112v168.288l-126.976 97.92 84.16 147.68 150.144-66.816 149.056 80.864 12.256 168.16h168.384l12.192-167.456 147.008-82.496 152.256 67.776 84.192-147.68-128.128-98.272v-167.552zM512 512c-70.688 0-128-57.312-128-128s57.312-128 128-128 128 57.312 128 128-57.312 128-128 128z" />
<glyph unicode="&#xe911;" glyph-name="music1" d="M832 0c-106.016 0-192 71.616-192 160s85.984 160 192 160c22.56 0 43.872-3.84 64-9.824v297.824l-512-128v-480h-3.872c-17.792-73.024-95.264-128-188.128-128-106.016 0-192 71.616-192 160s85.984 160 192 160c22.56 0 43.872-3.84 64-9.824v553.824l640 160h128v-736c0-88.384-85.984-160-192-160z" />
<glyph unicode="&#xe912;" glyph-name="twitter" d="M768 384h-384v-128c0-70.688 57.312-128 128-128h256c70.688 0 128-57.312 128-128s-57.312-128-128-128h-256c-212.064 0-384 171.936-384 384v512c0 70.688 57.312 128 128 128s128-57.312 128-128v-128h384c70.688 0 128-57.312 128-128s-57.312-128-128-128z" />
<glyph unicode="&#xe913;" glyph-name="pencil1" d="M965.536 654.656l-10.048-10.048-183.232 183.328 10.016 10.016c0 0 43.872 58.016 106.272 58.016 27.488 0 58.624-11.296 91.168-43.84 107.328-107.328-14.176-197.472-14.176-197.472zM895.328 584.416l-623.968-624.192-271.36-88.224 88.192 271.52v0.096h0.064l623.872 624.16 8.064-8.096M88.32-39.648l135.584 39.008-92.608 98.624-42.976-137.632z" />
<glyph unicode="&#xe914;" glyph-name="frame" d="M1024 192c0-35.328-28.672-64-64-64v-69.888c37.184-13.248 64-48.384 64-90.112 0-52.992-43.008-96-96-96-41.76 0-76.896 26.816-90.112 64h-69.888c0-35.328-28.672-64-64-64s-64 28.672-64 64h-64c0-35.328-28.672-64-64-64s-64 28.672-64 64h-64c0-35.328-28.672-64-64-64s-64 28.672-64 64h-69.888c-13.216-37.184-48.384-64-90.112-64-53.024 0-96 43.008-96 96 0 41.76 26.784 76.864 64 90.112v69.888c-35.328 0-64 28.672-64 64s28.672 64 64 64v64c-35.328 0-64 28.672-64 64s28.672 64 64 64v64c-35.328 0-64 28.672-64 64s28.672 64 64 64v69.888c-37.216 13.216-64 48.384-64 90.112 0 53.024 42.976 96 96 96 41.728 0 76.896-26.784 90.112-64h69.888c0 35.328 28.672 64 64 64s64-28.672 64-64h64c0 35.328 28.672 64 64 64s64-28.672 64-64h64c0 35.328 28.672 64 64 64s64-28.672 64-64h69.888c13.216 37.216 48.352 64 90.112 64 52.992 0 96-42.976 96-96 0-41.728-26.816-76.896-64-90.112v-69.888c35.328 0 64-28.672 64-64s-28.672-64-64-64v-64c35.328 0 64-28.672 64-64s-28.672-64-64-64v-64c35.328 0 64-28.672 64-64zM832 672c0 17.664-14.304 32-32 32h-576c-17.664 0-32-14.336-32-32v-576c0-17.696 14.336-32 32-32h576c17.696 0 32 14.304 32 32v576z" />
<glyph unicode="&#xe915;" glyph-name="switch" d="M960 384c0-247.424-200.576-448-448-448s-448 200.576-448 448c0 109.056 39.232 208.736 104 286.4 4.928 9.088 11.776 16.992 20.32 22.72 1.44 1.504 2.72 3.2 4.192 4.672 0.032-0.736 0.352-1.44 0.416-2.176 9.248 5.184 19.744 8.384 31.072 8.384 35.328 0 64-28.672 64-64 0-22.272-11.36-41.856-28.64-53.312 1.12-0.832 1.92-1.856 3.072-2.688-44-54.784-70.432-124.256-70.432-200 0-176.736 143.264-320 320-320s320 143.264 320 320c0 75.744-26.432 145.216-70.432 200 1.152 0.832 1.984 1.856 3.072 2.688-17.28 11.456-28.64 31.040-28.64 53.312 0 35.328 28.672 64 64 64 11.328 0 21.824-3.2 31.072-8.384 0.064 0.736 0.384 1.44 0.448 2.176 1.44-1.472 2.72-3.168 4.192-4.672 8.544-5.728 15.36-13.632 20.32-22.72 64.704-77.664 103.968-177.344 103.968-286.4zM544 320h-64c-17.696 0-32 14.304-32 32v448c0 17.664 14.304 32 32 32h64c17.696 0 32-14.336 32-32v-448c0-17.696-14.304-32-32-32z" />
<glyph unicode="&#xe916;" glyph-name="star" d="M724.032 257.888l-0.32 0.192-2.112-1.696 3.008-0.448c0 0 129.664-326.528 102.496-373.856-53.408-40.48-282.944 179.040-312.768 208.032l0.192-1.12c0 0-257.888-257.536-317.6-211.488-35.776 25.984 94.304 384.96 94.304 384.96l0.608 0.096c-47.776 27.296-310.176 212.672-290.784 279.392 0.576 40.16 365.248 37.376 376.864 35.808 1.408 8.16 63.904 318.24 134.112 318.24 70.56 0 131.2-317.376 131.936-321.792h0.192l0.064-0.32 0.8 1.696c0 0 377.376 5.792 377.952-33.632 21.376-73.376-298.944-284.064-298.944-284.064z" />
<glyph unicode="&#xe917;" glyph-name="key2" d="M448 256h-96v1.952c-10.56-1.088-21.152-1.952-32-1.952-176.704 0-320 143.264-320 320s143.296 320 320 320 320-143.264 320-320v-128h32v-32h32v-32h32v-32h32v-32h32v-32h32v-32h32v-32h32v-32h32v-32h32v-32h32v-32h32v-192c0-17.696-14.304-32-32-32h-128c-17.696 0-32 14.304-32 32v128h-160c-17.664 0-32 14.304-32 32v128h-160M256 768c-70.688 0-128-57.312-128-128s57.312-128 128-128 128 57.312 128 128-57.312 128-128 128z" />
<glyph unicode="&#xe918;" glyph-name="chart" d="M576 448v448c265.088 0 448-182.912 448-448h-448zM480-128c-265.088 0-480 214.912-480 480 0 289.088 210.912 480 512 480v-448h448c0-265.088-214.912-512-480-512z" />
<glyph unicode="&#xe919;" glyph-name="apple" d="M812.32 351.872c1.504-154.912 145.888-206.368 147.552-207.136-1.312-3.488-23.136-73.44-76.192-145.664-45.888-62.368-93.376-124.48-168.32-125.728-73.696-1.312-97.376 40.672-181.632 40.672-84.224 0-110.528-39.424-180.224-41.984-72.288-2.56-127.392 67.328-173.664 129.536-94.528 127.168-166.72 359.328-69.696 516 48.096 77.824 134.144 127.104 227.584 128.416 71.040 1.184 138.144-44.608 181.504-44.608 43.488 0 124.992 55.008 210.624 46.944 35.872-1.376 136.576-13.44 201.184-101.408-5.088-3.104-120.16-65.312-118.72-195.040zM510.592 660c-8.352 58.848 22.784 120.032 58.368 158.464 39.712 43.296 106.72 75.488 162.048 77.536 7.072-59.968-18.88-120.16-57.248-163.488-38.432-43.264-101.44-76.96-163.168-72.512z" />
<glyph unicode="&#xe91a;" glyph-name="file" d="M864-128h-704c-17.696 0-32 14.304-32 32v672h288c17.696 0 32 14.336 32 32v288h416c17.696 0 32-14.336 32-32v-960c0-17.696-14.304-32-32-32zM384 896v-256h-256l256 256z" />
<glyph unicode="&#xe91b;" glyph-name="plus" d="M992 512h-352v352c0 17.664-14.304 32-32 32h-192c-17.696 0-32-14.336-32-32v-352h-352c-17.696 0-32-14.336-32-32v-192c0-17.696 14.304-32 32-32h352v-352c0-17.696 14.304-32 32-32h192c17.696 0 32 14.304 32 32v352h352c17.696 0 32 14.304 32 32v192c0 17.664-14.304 32-32 32z" />
<glyph unicode="&#xe91c;" glyph-name="minus" d="M32 512h960c17.696 0 32-14.336 32-32v-192c0-17.696-14.304-32-32-32h-960c-17.664 0-32 14.304-32 32v192c0 17.664 14.336 32 32 32z" />
<glyph unicode="&#xe91d;" glyph-name="picture" d="M640 512l-192-320-127.040 92.672-0.96 3.328-7.552 2.912 5.888-4.32-190.336-158.592v-64h768v64l-96 288-160 96zM288 480c52.992 0 96 42.976 96 96s-43.008 96-96 96-96-42.976-96-96 43.008-96 96-96zM992 832h-960c-17.664 0-32-14.336-32-32v-832c0-17.696 14.336-32 32-32h960c17.696 0 32 14.304 32 32v832c0 17.664-14.304 32-32 32zM960 32c0-17.696-14.304-32-32-32h-832c-17.664 0-32 14.304-32 32v704c0 17.664 14.336 32 32 32h832c17.696 0 32-14.336 32-32v-704z" />
<glyph unicode="&#xe91e;" glyph-name="folder1" d="M992 512h-960c-17.664 0-32-14.336-32-32l32-512c0-17.696 14.336-32 32-32h896c17.696 0 32 14.304 32 32l32 512c0 17.664-14.304 32-32 32zM992 704h-352l-64 96c0 17.664-14.304 32-32 32h-384c-17.664 0-32-14.336-32-32v-96h-96c-17.664 0-32-14.336-32-32v-64c0-17.664 14.336-32 32-32h960c17.696 0 32 14.336 32 32v64c0 17.664-14.304 32-32 32z" />
<glyph unicode="&#xe91f;" glyph-name="camera1" d="M992 704h-176l-48 96c0 17.664-14.304 32-32 32h-448c-17.696 0-32-14.336-32-32l-48-96h-176c-17.664 0-32-14.336-32-32v-704c0-17.696 14.336-32 32-32h960c17.696 0 32 14.304 32 32v704c0 17.664-14.304 32-32 32zM512 64c-141.376 0-256 114.624-256 256s114.624 256 256 256 256-114.624 256-256c0-141.376-114.624-256-256-256zM512 448c-70.688 0-128-57.312-128-128s57.312-128 128-128 128 57.312 128 128-57.312 128-128 128z" />
<glyph unicode="&#xe920;" glyph-name="search" d="M1014.88-30.496c12.192-12.192 12.192-31.968 0-44.192l-44.192-44.192c-12.224-12.192-32-12.192-44.192 0l-309.376 309.376c-3.36 3.36-5.6 7.328-7.104 11.552-63.456-46.368-141.376-74.048-226.016-74.048-212.064 0-384 171.936-384 384s171.936 384 384 384c212.064 0 384-171.936 384-384 0-84.64-27.68-162.56-74.048-226.016 4.224-1.504 8.192-3.712 11.552-7.104l309.376-309.376zM384 768c-141.376 0-256-114.624-256-256s114.624-256 256-256 256 114.624 256 256c0 141.376-114.624 256-256 256z" />
<glyph unicode="&#xe921;" glyph-name="dribbble" d="M1013.632 487.072c-6.752 32.864-16.8 65.28-29.888 96.224-12.8 30.368-28.704 59.616-47.232 86.976-18.304 27.104-39.328 52.576-62.464 75.712-23.2 23.2-48.672 44.224-75.744 62.496-27.36 18.528-56.672 34.4-87.008 47.232-30.944 13.024-63.328 23.168-96.224 29.856-33.696 6.912-68.384 10.432-103.072 10.432s-69.376-3.52-103.136-10.432c-32.864-6.688-65.248-16.8-96.192-29.856-30.336-12.832-59.616-28.704-86.976-47.232-27.104-18.272-52.608-39.296-75.744-62.496-23.168-23.136-44.16-48.608-62.464-75.712-18.528-27.328-34.4-56.576-47.232-86.944-13.088-30.944-23.136-63.36-29.888-96.224-6.88-33.696-10.368-68.416-10.368-103.040 0-34.784 3.488-69.504 10.368-103.2 6.752-32.832 16.768-65.248 29.888-96.16 12.832-30.336 28.704-59.68 47.232-87.040 18.304-27.104 39.328-52.544 62.464-75.712 23.168-23.136 48.672-44.128 75.744-62.432 27.36-18.496 56.672-34.4 87.008-47.232 30.944-13.12 63.328-23.104 96.192-29.888 33.728-6.912 68.416-10.4 103.104-10.4s69.376 3.488 103.104 10.432c32.896 6.784 65.28 16.736 96.224 29.888 30.336 12.8 59.616 28.704 87.008 47.232 27.104 18.304 52.576 39.328 75.744 62.432 23.136 23.2 44.16 48.64 62.464 75.712 18.496 27.328 34.4 56.672 47.232 87.040 13.056 30.912 23.136 63.328 29.888 96.16 6.848 33.664 10.336 68.384 10.336 103.168 0 34.624-3.488 69.344-10.368 103.008zM949.12 388.384c-6.304 1.376-154.304 33.184-304.576 14.304-3.072 7.488-6.176 15.008-9.44 22.56-9.056 21.44-18.88 42.624-29.056 63.456 172.672 70.464 242.816 171.84 243.616 173.056 61.376-74.496 98.464-169.632 99.456-273.376zM800.8 712.128c-1.056-1.728-63.36-96.48-228.416-158.304-74.752 137.344-156.864 246.4-163.456 255.072 33.056 8.032 67.584 12.352 103.072 12.352 110.72 0 211.744-41.248 288.8-109.12zM407.296 808.544c-0.032-0.064-0.096-0.096-0.096-0.096s-0.512-0.128-1.312-0.288c0.416 0.128 0.928 0.224 1.408 0.384zM325.44 779.456c5.824-7.808 86.688-117.408 162.368-251.936-209.952-55.776-392.16-53.6-403.712-53.376 28.416 135.424 119.392 247.68 241.344 305.312zM74.752 384.064c0 4.64 0.192 9.184 0.384 13.792 7.68-0.16 223.744-5.056 448.864 62.304 12.576-24.512 24.544-49.44 35.488-74.336-5.824-1.632-11.488-3.328-17.248-5.216-235.968-76.256-355.648-288.576-355.648-288.576s0.16-0.128 0.192-0.192c-69.632 77.44-112.032 179.84-112.032 292.224zM512-53.216c-105.824 0-202.88 37.632-278.528 100.192 5.792-4.672 9.792-7.648 9.792-7.648s83.808 182.816 343.2 273.12c0.928 0.384 1.92 0.64 2.88 0.928 61.536-159.84 86.944-293.792 93.408-331.968-52.512-22.272-110.176-34.624-170.752-34.624zM756.352 21.344c-4.48 26.432-27.744 154.752-85.088 312.352 141.152 22.56 263.456-16.16 272.512-19.136-19.488-121.792-89.248-226.912-187.424-293.216z" />
<glyph unicode="&#xe922;" glyph-name="forrst" d="M957.888-95.104l-423.648 976.992c-3.712 8.576-12.192 14.112-21.536 14.112s-17.824-5.536-21.504-14.080l-425.088-976.992c-3.168-7.328-2.432-15.68 1.92-22.304 4.352-6.592 11.712-10.624 19.616-10.624h360.352v213.376l-127.968 42.656c-17.696 0-32 14.304-32 32s14.304 32 32 32l127.968-42.656v202.624c0 17.696 14.304 32 32 32h64c17.696 0 32-14.304 32-32v-48l95.968 48c17.696 0 32-14.304 32-32s-14.304-32-32-32l-95.968-47.968v-112l159.968 96c17.696 0 32-14.304 32-32s-14.304-32-32-32l-159.968-96v-192.032h360.352c7.936 0 15.296 4 19.616 10.624 4.352 6.592 5.024 15.008 1.92 22.272z" />
<glyph unicode="&#xe923;" glyph-name="feed1" d="M842.688-128c-0.8 459.232-401.504 834.528-842.688 835.392v188.608c541.312 0 1024-460.608 1024-1024h-181.312zM687.2-127.936h-181.216c0.608 112.768-56.672 238.976-147.328 333.472-90.144 95.264-249.92 155.296-358.208 154.72v188.544c338.080-7.296 679.872-326.624 686.752-676.736zM128.512 128.096c70.624 0 127.872-57.312 127.872-128 0-70.656-57.248-127.968-127.872-127.968s-127.872 57.312-127.872 127.968c0 70.688 57.248 128 127.872 128z" />
<glyph unicode="&#xe924;" glyph-name="blocked" d="M874.016 21.984c-199.936-199.968-524.128-199.968-724.064 0-199.968 199.936-199.968 524.128 0 724.064 199.936 199.968 524.128 199.968 724.064 0 199.968-199.968 199.968-524.128 0-724.064zM240.48 112.48c134.496-134.496 343.776-147.968 493.728-41.184l-534.912 534.912c-106.784-149.952-93.312-359.2 41.184-493.728zM783.52 655.52c-134.496 134.496-343.776 147.968-493.696 41.184l534.912-534.88c106.752 149.92 93.28 359.2-41.216 493.696z" />
<glyph unicode="&#xe925;" glyph-name="target" d="M512 896c-282.784 0-512-229.248-512-512s229.216-512 512-512 512 229.248 512 512c0 282.752-229.216 512-512 512zM576 5.76v122.24c0 17.696-14.304 32-32 32h-64c-17.696 0-32-14.304-32-32v-122.24c-160.672 27.008-287.424 153.6-314.464 314.24h122.464c17.696 0 32 14.304 32 32v64c0 17.696-14.304 32-32 32h-122.24c27.008 160.704 153.6 287.424 314.24 314.464v-122.464c0-17.664 14.304-32 32-32h64c17.696 0 32 14.336 32 32v122.464c160.64-27.040 287.232-153.76 314.24-314.464h-122.24c-17.696 0-32-14.304-32-32v-64c0-17.696 14.304-32 32-32h122.464c-27.040-160.64-153.792-287.232-314.464-314.24z" />
<glyph unicode="&#xe926;" glyph-name="play1" d="M192 896v-1024l640 511.264-640 512.736z" />
<glyph unicode="&#xe927;" glyph-name="pause" d="M352 896h-192c-17.696 0-32-14.336-32-32v-960c0-17.696 14.304-32 32-32h192c17.696 0 32 14.304 32 32v960c0 17.664-14.304 32-32 32zM864 896h-192c-17.696 0-32-14.336-32-32v-960c0-17.696 14.304-32 32-32h192c17.696 0 32 14.304 32 32v960c0 17.664-14.304 32-32 32z" />
<glyph unicode="&#xe928;" glyph-name="bug" d="M992 416h-164.736c-5.824 43.424-17.632 84.192-33.888 121.376l102.624 102.624c17.696 0 32 14.336 32 32v160c0 17.664-14.304 32-32 32s-32-14.336-32-32v-160l-105.792-70.528c-16.288 24.032-34.656 45.824-55.2 64.16-9.632 129.344-91.456 230.368-191.008 230.368s-181.376-101.024-191.040-230.368c-20.512-18.304-38.912-40.096-55.168-64.16l-105.792 70.528v160c0 17.664-14.336 32-32 32s-32-14.336-32-32v-160c0-17.664 14.336-32 32-32l102.624-102.624c-16.256-37.184-28.064-77.952-33.888-121.376h-164.736c-17.664 0-32-14.304-32-32s14.336-32 32-32h164.576c3.552-26.688 9.504-116.32 17.184-140.8l-93.344-116.736c-13.92-3.52-24.416-15.488-24.416-30.464v-160c0-17.696 14.336-32 32-32s32 14.304 32 32v160l80.672 80.672c54.016-106.112 148-176.672 255.328-176.672 5.408 0 10.656 0.96 16 1.344 5.344-0.384 10.592-1.344 16-1.344 107.328 0 201.312 70.56 255.328 176.672l80.672-80.672v-160c0-17.696 14.304-32 32-32s32 14.304 32 32v160c0 14.976-10.496 26.944-24.384 30.432l-93.376 116.768c7.68 24.512 13.632 114.112 17.184 140.8h164.576c17.696 0 32 14.304 32 32s-14.304 32-32 32z" />
<glyph unicode="&#xe929;" glyph-name="console" d="M992 768h-960c-17.664 0-32-14.336-32-32v-704c0-17.696 14.336-32 32-32h960c17.696 0 32 14.304 32 32v704c0 17.664-14.304 32-32 32zM960 96c0-17.696-14.304-32-32-32h-832c-17.664 0-32 14.304-32 32v576c0 17.664 14.336 32 32 32h832c17.696 0 32-14.336 32-32v-576zM303.936 507.488l-123.36 123.392c-12 12-31.456 12-43.456 0s-12-31.456 0-43.456l107.456-107.424-107.456-107.456c-12-12-12-31.424 0-43.424s31.456-12 43.456 0l123.36 123.36c2.432 1.344 4.896 2.56 6.944 4.608 6.304 6.304 9.12 14.656 8.768 22.912 0.32 8.256-2.464 16.608-8.768 22.88-2.048 2.048-4.512 3.264-6.944 4.608zM608 384h-192c-17.664 0-32-14.336-32-32 0-17.696 14.336-32 32-32h192c17.696 0 32 14.304 32 32 0 17.664-14.304 32-32 32z" />
<glyph unicode="&#xe92a;" glyph-name="film1" d="M928 896h-832c-17.664 0-32-14.336-32-32v-960c0-17.696 14.336-32 32-32h832c17.696 0 32 14.304 32 32v960c0 17.664-14.304 32-32 32zM160 0c-17.664 0-32 14.304-32 32s14.336 32 32 32 32-14.304 32-32-14.336-32-32-32zM160 128c-17.664 0-32 14.304-32 32s14.336 32 32 32 32-14.304 32-32-14.336-32-32-32zM160 256c-17.664 0-32 14.304-32 32s14.336 32 32 32 32-14.304 32-32-14.336-32-32-32zM160 384c-17.664 0-32 14.336-32 32s14.336 32 32 32 32-14.336 32-32-14.336-32-32-32zM160 512c-17.664 0-32 14.336-32 32s14.336 32 32 32 32-14.336 32-32-14.336-32-32-32zM160 640c-17.664 0-32 14.336-32 32s14.336 32 32 32 32-14.336 32-32-14.336-32-32-32zM160 768c-17.664 0-32 14.336-32 32s14.336 32 32 32 32-14.336 32-32-14.336-32-32-32zM768-32c0-17.696-14.304-32-32-32h-448c-17.664 0-32 14.304-32 32v320c0 17.696 14.336 32 32 32h448c17.696 0 32-14.304 32-32v-320zM768 416c0-17.664-14.304-32-32-32h-448c-17.664 0-32 14.336-32 32v384c0 17.664 14.336 32 32 32h448c17.696 0 32-14.336 32-32v-384zM864 0c-17.696 0-32 14.304-32 32s14.304 32 32 32 32-14.304 32-32-14.304-32-32-32zM864 128c-17.696 0-32 14.304-32 32s14.304 32 32 32 32-14.304 32-32-14.304-32-32-32zM864 256c-17.696 0-32 14.304-32 32s14.304 32 32 32 32-14.304 32-32-14.304-32-32-32zM864 384c-17.696 0-32 14.336-32 32s14.304 32 32 32 32-14.336 32-32-14.304-32-32-32zM864 512c-17.696 0-32 14.336-32 32s14.304 32 32 32 32-14.336 32-32-14.304-32-32-32zM864 640c-17.696 0-32 14.336-32 32s14.304 32 32 32 32-14.336 32-32-14.304-32-32-32zM864 768c-17.696 0-32 14.336-32 32s14.304 32 32 32 32-14.336 32-32-14.304-32-32-32z" />
<glyph unicode="&#xe92b;" glyph-name="type" d="M896 896h-768c-17.664 0-32-14.336-32-32v-192c0-17.664 14.336-32 32-32h32c17.664 0 32 14.336 32 32l64 96h192v-768l-160-64c-17.664 0-32-14.304-32-32s14.336-32 32-32h448c17.696 0 32 14.304 32 32s-14.304 32-32 32l-160 64v768h192l64-96c0-17.664 14.304-32 32-32h32c17.696 0 32 14.336 32 32v192c0 17.664-14.304 32-32 32z" />
<glyph unicode="&#xe92c;" glyph-name="home1" d="M922.592 287.392l-90.88 90.912v-474.304c0-17.696-14.272-32-31.968-32h-127.872c-17.696 0-31.968 14.304-31.968 32v383.808c0 17.696-14.304 32-32 32h-191.84c-17.664 0-31.968-14.304-31.968-32v-383.808c0-17.696-14.336-32-31.968-32h-127.872c-17.664 0-32 14.304-32 32v474.304l-90.88-90.912-101.376 101.44 506.944 507.168 5.056-5.056 5.056 5.056 250.72-250.848v186.432h127.904v-314.4l128.32-128.352-101.408-101.44z" />
<glyph unicode="&#xe92d;" glyph-name="earth" d="M512-128c-282.752 0-512 229.248-512 512s229.248 512 512 512c282.752 0 512-229.248 512-512s-229.248-512-512-512zM926.976 426.912c0.832 0.416 1.28 1.12 1.6 2.24 0.672-3.552 2.304-6.688 4.928-8.992 0.064-0.32-0.096-0.256 0.064-0.704 0.256 0 0.448 0.192 0.672 0.192 2.688-2.176 6.016-3.648 9.76-3.648 5.76 0 10.56 3.2 13.376 7.712 0.192-0.224 0.512-0.512 0.672-0.768-0.032 0.512-0.096 1.024-0.16 1.536 1.248 2.272 2.112 4.768 2.112 7.52 0 8.832-7.2 16-16 16-5.632 0-10.304-3.072-13.184-7.424-0.128 0.096 0 0.48-0.352 0.352 0.416 1.216-0.704 4.32-2.464 7.648v-16.576c0-1.824-0.512-3.456-1.024-5.088zM191.744 431.712c0 4.832-11.008 13.056-13.856 13.056 0 0.864-4.48 10.72-6.176 10.72 0 3.328-11.68 18.272-13.536 11.744-1.216-4.224 8.928-9.92 8.928-14.816 1.888 0 9.824-15.040 11.392-17.664 17.344-29.312-12.96-9.28-12.96 3.136-3.872 1.92-9.984 16.672-9.984 20.704-2.272 1.824-8.992 16.064-8.448 16.064 0 9.344-5.152 13.824-15.392 13.824-0.48 0.928-9.088 13.024-9.248 13.024 0 3.84-6.912 15.744-10.752 17.632 0 7.968-4.096 17.792-2.272 26.048 0 8.672-0.448 18.496-3.392 27.392-26.72-57.376-42.048-121.12-42.048-188.576 0-193.312 122.688-357.568 294.272-420.384 0.192 15.872 1.376 34.88 4.992 34.88 0 2.368 2.016 12.288 3.84 12.288 0 6.080 0.736 13.408 0 20.704-2.272 4.576 3.008 10.432 4.608 17.632 8.864 4.448 2.592 49.056 9.28 49.056 0 22.304 4.992 35.296 1.504 55.968 1.696 0-10.080 12.512-9.984 12.288-11.296 0-19.2 18.112-19.2 26.048-1.088 3.488-3.872 8.704-3.872 13.024 2.592 0-16.16 27.392-16.16 26.848-9.92 5.504 0.544 13.184 1.536 22.208-8.608 2.848 0.096 26.080 3.84 26.080 0.384 2.944 1.92 4.96 4.64 6.112 1.92-7.648 10.848 3.808 3.84 3.808 0 5.056-0.576 15.872 0 18.4 0 7.808-6.912 23.104-12.288 6.912-5.76 2.848-20.288 2.336-21.536 11.488 0.896 4.512-8.288 13.728-11.52 15.328 3.008 7.872-15.584 18.4-22.304 18.4 0 1.696-3.552 0.928-4.608 3.072-6.848 0-8.416 9.216-16.16 9.216-8.928 0-17.92 6.112-26.144 6.112-2.752 5.472-15.52 3.328-18.464 9.216-6.688 0-9.312 12.672-9.504 17.344-0.288 5.76-4.864 25.664-12.864 25.664zM839.936 688.512c-0.064-0.192 0.064-0.064-0.256-0.704 0.48 0 1.056-0.544 1.6-0.768-0.48 0.48-0.896 0.96-1.344 1.472zM849.568 677.92c1.12-2.176 1.952-4.192 1.696-5.44 1.12-0.032 1.664 0.576 2.56 0.8-1.376 1.568-2.88 3.040-4.256 4.64zM877.376 532.128c0.512 13.824-11.52 11.52-15.328 19.2-3.968 0-5.408 3.072-10.784 3.072-3.488 1.184-6.24 0.352-8.256-2.496-8.224-3.136-3.264 4-9.44 4 0.288 7.904-2.848 10.080-11.552 9.216-4.992-11.264-12.672-18.016-11.52-30.688 3.68-0.832 3.040-1.664 2.304-5.344 4.896-0.256 34.592 1.536 34.592 4.608 1.024 0 6.176-10.592 6.176-1.536 4.128 0 6.304-9.696 16.16-6.88 0-1.984 16.448 6.848 7.648 6.848zM878.944 368.832c0.576 2.816-1.408 4.064-3.072 6.912 4.384 0-13.856 33.824-13.856 39.104-2.784 1.376-6.336 11.040-6.976 14.56-3.744 2.496-7.616 10.688-9.216 15.328-3.808 2.528-13.088 13.856-14.592 19.168 5.504-0.608 13.824-1.728 13.824 5.376-3.712 0-4.256 4.576-0.736 4.576-1.152 4.704 2.496 8.096 3.296 11.776 0.96 4.448 2.848 11.296 2.848 16.608-5.28 0-6.56-0.896-10.752-2.304 0-3.104-9.376 0.768-10.752 0.768-2.016 4.032-16.64-5.248-20.736 3.072-6.624 5.984-4.832 10.592-6.976 19.040-1.088 4.288-6.944 4.544-10.496 5.248-10.016 1.952-2.784-11.936-3.328-15.104 6.144 0-3.872-7.616-3.872-11.488-10.368 2.24-6.912 13.792-13.024 16.864-1.824 3.072-0.384 5.376-4.64 5.376 0 4.096 2.176 11.52-2.304 13.024 0 1.984-8.704 2.784-9.984 5.376-5.504 0-18.304 20.8-22.24 13.792-2.464-4.48 2.080-5.568 3.008-9.216 7.968 1.568 7.2-13.12 16.928-11.488 0-2.048 0.256-4.128 0.736-6.144 7.2 1.696 6.368-5.344 9.984-5.344-2.624-3.488-10.944 5.568-8.672-2.048 1.312-4.416 0.576-8.192-5.152-12.512 0 4.768-0.384 17.632-5.376 17.632-3.392 6.784-13.472 5.152-17.728 11.488-3.456 0-4.8 10.752-10.752 11.488-1.12-1.568-5.312-3.072-6.944-3.072-3.232-6.496-21.504-0.672-21.504-1.536-0.288-0.064-10.24-24.384-10.816-27.584-1.12-6.88-6.656-7.008-8.32-13.536-0.832-3.264-20.896-1.728-20.896-4.128-8.672 2.88-16.16 8.96-16.16 18.4-0.704 0 1.632 24.096 3.104 27.616 1.76-0.48 2.112-1.088 3.104-3.072 5.312 1.984 17.696-1.312 17.696 4.608 5.152-0.128 6.688-2.176 4.608-6.144 4.8-0.896 13.088-2.112 13.088 4.608-2.816 0-3.104 0.256-3.104 3.072 9.216 9.568-6.912 18.208-6.912 22.976-3.264 1.088-9.92 8.16-5.184 5.504 4-2.208 18.624-6.784 12.864 2.944 0.384 0.128 0.64 0.384 0.736 0.736 1.632-1.152 8.512-8.224 8.512-1.536 1.888 0 9.184 4.608 3.072 4.608 0.576 3.456 0.448 6.336 0.736 8.448 9.76-5.248 4.32 3.584 9.248 6.88 0-6.368 5.248 3.072 8.448 3.072 3.808 5.664 12.512 1.28 14.624 7.68-4.704 1.536-3.84 13.312-3.84 17.6 5.664-0.928 11.968 7.648 12.832 1.76 0.32-2.272 0.608-8.544 1.76-9.408 8.416-4.416 6.176 2.528 6.176 6.88-2.816 0-6.56 9.856-6.944 14.592-2.304-0.32-6.016-1.28-6.944-3.040-8.384 0-14.080 3.040-20.736 3.040-0.512 1.024-8.512 9.984-7.68 9.984-4.672 8.032 4.672 5.696 6.144 6.080 0 7.616 31.712 6.272 33.088 18.432-10.432 0 10.752 17.664 10.752 17.6 7.072 6.048 10.816 11.264 19.616 11.936 3.712 0.256 44.992 11.648 44.992 6.496 1.664-0.064 7.168-0.128 12.864-0.32-79.904 74.304-186.688 120.064-304.416 120.064-114.016 0-217.792-42.944-296.864-113.12 0.704-1.6 1.248-3.136 1.216-4.224 4.192 0.288 10.208 2.976 11.552-2.336-2.080 0.032-4.16 0.288-6.144 0.8 1.472-11.872-5.184-4.608-10.752-4.608 0 0.288-2.464 1.28-5.088 1.984-1.696-1.6-3.488-3.104-5.184-4.704 0.192-0.512-0.096-0.544 0.224-1.12 1.792 0 0.864-2.784 5.984-4.48 5.92-2.016 12.416-3.136 18.656-4.128 5.056-0.8 7.968 0.928 12.288 0.928 0 0.64 10.56 5.344 3.104 5.344 1.024 4.224-0.864 5.28-5.408 5.344 0.384 4.48 11.040 1.536 15.392 1.536 3.328 5.6 0.096 4.928 3.040 10.016 3.52 6.24 7.712 0.832 10.016 6.816 3.488-1.28 6.592-3.168 7.712-7.584 2.784-2.304 16.928-23.168 16.928-8.416 5.056-1.696 7.584-11.168 7.68-16.128 9.184 1.344 9.984 8.224 9.984 15.36 2.112 0-0.768 3.424-0.768 4.608 3.424 1.248 7.712-3.264 7.712 1.504 1.472 0 1.536-1.472 1.536-3.072 4.768-0.928 7.84 0.544 10.752-0.48 2.016-0.704 0.992-11.168 0.064-14.848-1.152-4.672-10.080-4.736-10.080-6.912-10.112-7.552 11.936-11.488 15.392-16.096-2.080 0-9.984 1.024-9.984 1.504-4.992 0-17.088-5.28-21.536-1.504 6.208 0 8.288 7.456 9.248 14.56-5.728 2.144-12.48-1.376-14.080-7.072-2.688-9.408-8.928 0.384-12.064-5.952-1.216-0.384-12.32-5.536-12.32-3.808-12.48-1.76-9.216-12.352-9.216-23.776 4.96-2.976 15.040-11.456 14.592-16.096 11.2-1.984 15.296-3.168 25.376-4.608 0.832-1.632 4.16-3.168 6.176-3.808 0-6.592 5.984-5.408 11.52-5.408 0 8.416 9.792-7.008 10.752-9.952-1.344 0 2.304-8.608 3.072-11.52-1.536 0.544-2.016 0-1.536-1.536 4.864-1.792 12.576-1.28 13.856 3.84-4.672 0-3.104 5.344-3.104 8.448-4.8 3.2-4.064 9.376 0.768 10.72 0-4.352 15.84 2.72 6.912 6.112 2.176 4.896 3.648 12.416 0.096 16.672-2.272 2.688-5.12 0-6.24 4.032 6.048 1.504 1.6 13.024 1.536 18.4 1.92 0.736 6.912-1.216 6.912 0 5.92 0 15.776-7.488 19.232 1.568 9.888-4.512 2.016-8.8 12.32-5.376 0-2.432 11.616-13.792 13.088-13.792 0-0.544-0.288-3.84 2.272-3.84 0-2.464-1.536 1.408-1.536-3.040 1.44-0.16 9.248-1.568 9.248 1.504 4.96 0 8.448 6.080 8.448 10.72 3.104 2.016 8.544-16.864 12.288-16.864 2.752-4.288 11.552-10.528 11.552-14.56 1.856-1.888 3.808-1.376 3.808-6.912 2.336 0 6.944 9.184 6.944 0.768 2.176 0 8.512-4.672 9.248-8.416-5.536 0-0.288-5.376-3.136-5.376 0-5.312-11.872-1.088-14.56-0.768-3.68-16.48-25.888-4.64-39.328-8.896-7.072-2.24-20.736-17.824-21.472-25.6 8.576-0.096 12.352 7.424 20 9.984 6.24 0 7.456 3.776 13.088 5.344 0-1.568 1.536-0.736 1.536-2.304-10.944 0-4.288-7.072-1.088-12.224 1.984-3.2 4.256-4.736 6.784-5.728-1.056-1.856-1.92-3.712-2.592-5.792 0-0.032-0.032 0-0.032-0.032-2.080-0.704-6.144-2.208-6.944-3.84-12.384-1.376-6.272-0.544-5.44 2.432 0.448-1.056 4.896-0.096 4.704-0.128-0.736 3.712-1.856 3.2-0.768 5.344-6.72 0-9.984-3.072-15.392-3.072-0.896-1.824-5.6-6.144-7.68-6.144-1.568-4.736-5.12-13.344-9.248-16.096 0 1.248-10.944-6.88-9.984-6.88-2.432-3.936-5.088-3.808-6.176-9.952-0.736-0.384-3.84-10.656-3.84-12.256-4.768-3.168-6.528-16.096-14.624-16.096-4.96-9.856-13.856-8.544-13.856-21.472 3.008-3.072 4.16-16.672 5.088-21.024 1.152-5.408 2.944-11.040-4.288-11.168-0.512 0.8-5.568 8.448-4.64 8.448 0 3.168-3.872 13.312-6.144 16.48-3.040 4.256-8.672-0.672-13.088 1.184-1.888 3.776-14.656 4.608-19.2 4.608 0.736-2.848 2.816-3.744 3.072-6.912-3.776-1.536-5.952-3.264-9.856-2.72-6.688 0.928-5.888 6.144-13.248 5.408-11.776-1.184-20-10.944-20-22.624-1.312 0-1.312-23.008 0-23.008 0-6.496 5.376-11.2 5.376-16.096 5.216 0 11.072-11.488 16.16-11.488 0.576-4.064-2.56-4.704 6.144-4.64 0 0.448 4.736 2.976 5.376 6.144-6.016 1.472-0.032 9.216 3.84 10.72 0-5.472 7.68 1.824 7.68 2.304 0.864 0.352 8.48 3.072 8.48 3.072 0 6.208 5.792-0.608 1.536-3.072-4.16 0-3.84-6.912-6.144-6.912-0.992-4.928-2.944-9.216-4.096-14.016-1.472-5.92 3.328-6.528 1.792-12.064 6.112-1.152 12.288-0.032 18.464 0 0.032 1.088-0.192 2.144-0.768 3.072 8.928 0 0.768-16.864 6.176-16.864 0-6.368 3.072-11.328 3.072-15.328 4.16-2.752 6.656-6.432 5.376-11.488 5.12-0.672 16.128-1.984 16.128 4.608 7.776 0 8.32-5.28 7.744-10.72 15.488 0 5.792 15.328 12.256 15.328 0.608 2.528 1.664 2.976 3.168 1.312 3.168-1.696 5.568 3.168 8.096 4.704 0.8 0.544 3.616 2.176 4.128 2.176 2.176-1.312 2.368-0.928 3.328-2.4 4.224 0.032 8.48 2.4 12.096 4.896 5.536-0.672 3.744-12.576 14.112-13.312 4.16-0.288 13.792-1.44 17.376 1.024 0.896 0.608 4.192-2.080 4.544-3.232 3.456 0 3.2-3.008 4.672-2.944 0.352-0.672 0.864-0.928 1.568-0.736 0.448-1.312 3.2-1.696 4.64-5.344 0-3.328 6.912-3.904 6.912-6.112 4.96-2.496-1.696-3.168 5.92-5.472 4.192-1.312 8.064-3.424 12.576-3.744 1.44 5.472 6.112-0.736 8.48-0.736 1.216-2.496 1.856-0.608 3.040-3.072 7.136-5.952 2.432-3.648 5.376-9.984 3.424-2.24 4.512-10.048 5.44-14.56-2.752 0-0.8-10.528-0.8-11.52-3.328 0 8.512-6.304 8.512 1.568 4.864-0.8 8.064-6.112 11.52-6.112-2.016-4.64 5.376-8.128 5.376-0.8 7.296-0.736 5.344-11.616 4.64-15.328 5.408 0 6.976 3.008 11.584 3.584 4.992 3.168 10.56 5.472 16.864 5.472 17.696 0 32-14.304 32-32 0-15.936-11.872-28.576-27.136-31.008-2.048-2.336-3.904-4.352-4.032-4.352 0-1.536-0.352-16.832-0.8-16.832 0-3.072-2.336-19.936-4.608-19.936 0-8.672-5.664-10.24-7.68-18.4-4.672-3.456-17.312-9.216-19.264-13.024-3.616 0-6.304-3.072-9.984-3.072-0.512-1.056-8.352-8.448-6.944-8.448-0.576-5.44 0.416-18.24-2.528-21.824-1.984-2.368-4.832-2.112-3.584-5.824-4.32 0 0.256-3.072-6.56-3.072-4.288 0-11.936-6.112-12.16-11.296-0.288-6.336-1.984-10.912-7.424-14.784 0-2.176-9.984-2.816-9.984-8.448 0.928 0 0-10.432 0-11.488-2.976 0.096-10.272-2.88-11.52-5.344-10.048 0-8.832-1.024-15.36-5.376 0-1.344-0.928-6.112-2.304-6.112 0-7.776-5.536-0.704-10.016-4.64 1.76 0 4-7.648 3.072-7.648 0-6.752-4.192-7.328-8.448-12.288-2.016-1.344-3.936-6.912-5.376-6.912 0-4.544-2.272-8.672-2.272-13.024 0.96 0 0.064-1.952 0.736-3.776 2.144 0.608 2.208 3.040 3.072 3.040 0 3.84 6.112-2.272 2.304-2.272-3.168-4.8-6.592-4.896-8.48-11.52-1.92 0-3.584-1.856-4.992-4.032 37.696-10.272 77.248-16.288 118.272-16.288 157.568 0 295.872 81.536 375.744 204.576 0.48 11.328 2.24 22.144 3.488 25.888 3.136-2.304 5.472-6.624 7.68 0-5.536 1.088-4.192 3.008-2.304 7.648 2.112-1.28 6.368-2.848 9.824-2.624 1.056 1.984 1.888 4.096 2.944 6.080-3.136 2.432 1.184 8.736 2.688 5.664 0.8 1.536 1.504 3.136 2.24 4.672-0.352 0.096-0.256-0.128-0.768 0.032 0 2.784 0.512 2.432 2.336 3.84 0.032-0.288 0-0.288 0.064-0.544 27.936 58.464 44.064 123.648 44.064 192.768 0 2.272-0.32 4.448-0.352 6.72-0.832-3.136-2.4-6.528-4.608-7.296 0-2.016-22.88-11.968-21.504-16.096-4.032 0-18.176-4.032-20.768-9.184-2.848 0-14.336-4.064-15.392-6.144-14.272-0.032-11.552 16.832-18.432 16.832zM944 544h-16.992c-0.128 0.16-0.256 0.192-0.384 0.416-0.864 0-4.48 8.128-3.072 9.984 1.376 0 2.016-0.128 2.752-0.192-1.44 3.52-3.008 6.976-4.576 10.464-3.456-2.368-6.496-5.376-11.264-5.664 0-1.312-6.816-14.56 0-14.56 0-0.256 0.128-0.448 0.192-0.672-8.16-0.768-14.656-7.424-14.656-15.776 0-8.832 7.168-16 16-16h6.304c0.384-2.912 1.952-5.44 7.552-6.688 1.76-7.392 14.944-10.016 16.928-2.272-5.568 0-3.744 5.344-3.264 8.96h4.48c8.8 0 16 7.168 16 16s-7.2 16-16 16zM897.376 335.936c1.12-0.064 8.512 0.128 8.512 1.44 6.688 0 15.744 0.928 22.304 3.104 0-9.92-8.352-15.456-6.944-25.312-5.536 0-3.104-5.696-3.104-7.648-3.584-2.208-4.128-6.24-8.448-8.448 0-4.448-9.984-11.808-12.928-15.616-3.328-4.256-13.344-11.648-14.656-17.056 0.352 1.28-18.304-19.424-13.952-19.424 0-3.872-5.248-34.496 1.536-34.496 0-2.688 5.792-28.384 2.272-28.384 0-8.256-5.376-13.312-5.376-19.904-2.624-1.792-6.368-2.784-7.68-5.408-4.704 0-6.976-9.984-9.216-9.984 0-10.656-3.104-18.56-3.104-30.656 0.864 0-6.144-17.248-6.144-18.368-5.664-3.808-20-17.472-20-24.576 0 0-9.984-14.016-11.52-16.096-3.008 0-26.176-4.352-26.176-6.144-4.928 0-17.664-3.872-20.736 0.768 0 4.864-2.656 11.040-3.072 17.664-2.368 0-2.752 9.952-5.376 9.952 0 2.112-14.688 31.456-12.32 31.456 0 3.040-2.624 13.024-3.072 13.024 0 10.56-7.712 19.36-7.712 29.12-2.272 0-6.976 21.44-4.608 21.44 0 11.264 3.936 18.624 5.568 31.136 1.824 13.728-0.864 22.080-3.264 31.776-1.312 0-5.728 7.328-6.176 9.184-6.176 4.096-8.448 12.224-8.448 19.904 4.032 4.608 5.632 21.92 4.64 27.616-7.776 3.68-10.88 2.304-19.264 2.304-4.96 9.952-38.272 3.808-47.712 3.808 0-5.44-23.2 1.056-25.376 5.376-5.664 0-16.896 12.032-16.896 17.632-6.208 4.128-16.128 24.672-16.128 31.424-5.376 2.688-3.744 13.056-0.8 13.056 0.736 2.88-1.888 11.968-3.136 16.288-0.928 3.232 3.136 6.72 3.136 10.56 0 10.688 0.256 15.616 6.24 27.040 1.888 3.584 4.288 6.944 6.048 11.424 3.2 8.032 4.16 0.384 8.48 7.552 4.128 2.048 6.528 8.896 10.784 12.256 1.856 2.464 1.92 3.488 0 5.376 0.832 0 5.376 11.808 5.376 14.528 6.016 8.352 1.76 4.544 7.68 3.84 2.176 2.368 5.792 8.448 9.216 8.448 1.504 2.976 5.28 4.608 8.48 4.608 0-4.608 12.544 1.504 13.856 1.504 2.144 4.32 15.968 9.216 19.232 9.216 0 5.248 27.264-1.472 31.552-0.768 0 0.768 0 1.536 0 2.304 5.824-1.376 16.448-24.736 15.36-29.92 4.48 0 8.64 0.736 11.552 0 0-4.96 9.344-6.176 13.6-6.4 5.92-0.288 23.296 0.608 23.296 8.704 4.576 0 8.64-3.2 7.744-8.416 5.184-0.576 36-1.184 33.824-7.648 4.512 0 5.664-7.712 9.984-7.712-0.864-5.312 5.376-19.168 9.984-19.168 0-4.608 2.88-13.088 6.944-16.064 2.176-6.592 9.376-20.48 16.128-24.544-2.88-5.44 4.384-9.92 6.176-15.328-0.416 0 1.568-8.032 3.808-9.216 0-5.44 11.456-27.616 17.728-27.616 0.416-2.688-5.888-3.904 2.304-4.512zM731.264 507.616c1.184 4.576 3.872 1.024 6.368 0.192 5.92-1.92 3.872 0.096 8.256 2.080 0-12.48-7.168-3.008-14.624-2.272zM715.072 530.624c3.136 0 4-14.080-4.608-11.488 0 3.488-2.208 9.952 2.336 9.952 1.312-5.44 2.272-3.232 2.272 1.536zM711.264 539.808c3.552-1.536 5.12-1.024 4.608 1.536 4.672-1.536-0.608-4.864-1.536-8.448-2.4 2.368-1.664 3.2-3.072 6.912zM628.928 608.064c-7.552 1.952 7.776 4.192 8.448 6.112-2.56 0-4.32 2.656-3.328 4.896 1.152 2.656 3.040-3.168 5.664-1.856 3.104 0.32 9.216 4.96 6.080-4-3.2-9.088-6.112-15.744-17.632-15.904-4.128 4.16-0.16 6.336 0.768 10.752zM657.408 639.488c6.208 0 0.768-4.608-0.608-4.608 1.056-0.416-0.192-4.128-0.192-5.344 5.76 0.064 5.856 3.584 9.984 4.608-0.864-5.152-6.624-6.144-0.992-10.56 2.976-2.336 6.016-5.088 4.832-8.64 7.328 0 8.416-7.040 6.912-15.328 4.064 0 3.872-0.192 3.872 3.872 3.936-1.088 3.648-4.64 0-4.64-3.648-7.2-13.216-6.88-20-6.88-0.064 5.568-1.12 5.92-6.272 4.352-7.040-2.144-1.536 5.6-1.408 9.44 0.768 0 15.968-0.704 6.912 2.304-0.48 8.256-2.336 10.72-9.984 10.72 0 5.632-1.984 5.216-2.912 11.392-1.312 9.12 7.136-0.64 9.856 9.312zM655.072 589.664c0-1.888-3.84-3.392-4.608-0.736 0.736-0.256 1.024 0 0.736 0.736 1.312 0 2.624 0 3.872 0zM592 672h-32c-8.832 0-16 7.168-16 16s7.168 16 16 16h32c8.832 0 16-7.168 16-16s-7.168-16-16-16zM405.568 388.8c1.792 0 3.872-0.704 3.872-2.304-2.336 0-5.344-2.208-3.872 2.304zM376.384 387.232c-1.28-2.432-11.648-2.016-13.088 0.8 3.84 0 6.816-1.568 10.752 0 0 2.112-1.76 3.808-3.072 6.112 4.192 0 8.896-3.2 14.624-3.072 0 3.552-1.568-0.768 0 3.84 2.4-0.608 8.192-6.112 8.448-8.416-8.416 0.896-8.8 0.736-17.664 0.736zM342.528 405.632c-3.936 0-11.52 3.424-13.856 6.912 3.808-0.16 7.584-1.728 9.984 2.304 9.76-0.992 10.624-7.712 18.464-7.712 1.472-2.592 9.856-8.544 1.76-9.312-6.112-0.576-13.792 2.752-16.352 7.808zM348.672 384.16c-2.848 0-7.552-1.248-5.376 4.64 3.776-0.512 5.568-2.080 5.376-4.64zM354.048 384.928c-1.536-0.256-3.072-0.512-4.608-0.768 0.448 3.552 3.808 7.52 4.608 0.768zM382.496 351.232c-0.608-2.144-0.512-2.272-3.040-2.272 0.256 0.992 0.48 1.984 0.736 3.040 0.8-0.256 1.536-0.512 2.304-0.768zM313.28 414.848c0.736-0.256 1.536-0.544 2.304-0.768 0.992-3.808 3.072-1.92 5.376-0.768 0-4.448-10.304-5.728-7.68 1.536z" />
<glyph unicode="&#xe92e;" glyph-name="location" d="M510.016-128c0 0-318.016 449.984-318.016 641.984 0 378.016 318.016 382.016 318.016 382.016s321.984-4 321.984-380c0-197.984-321.984-644-321.984-644zM512 704c-70.688 0-128-57.312-128-128s57.312-128 128-128 128 57.312 128 128-57.312 128-128 128z" />
<glyph unicode="&#xe92f;" glyph-name="info" d="M512 896c-282.784 0-512-229.248-512-512s229.216-512 512-512 512 229.248 512 512c0 282.752-229.216 512-512 512zM512 704c35.328 0 64-28.672 64-64s-28.672-64-64-64-64 28.672-64 64 28.672 64 64 64zM352 128l96 64h64v256h-64l-32 64h160v-320h64l96-64h-384z" />
<glyph unicode="&#xe930;" glyph-name="eye" d="M512 704c-282.784 0-512-320-512-320s229.216-320 512-320 512 320 512 320-229.216 320-512 320zM512 192c-106.016 0-192 85.984-192 192s85.984 192 192 192 192-85.984 192-192-85.984-192-192-192zM512 512c-70.688 0-128-57.312-128-128s57.312-128 128-128 128 57.312 128 128-57.312 128-128 128z" />
<glyph unicode="&#xe931;" glyph-name="heart" d="M736 832c-76.928 0-138.592-27.616-192.96-82.016-0.032-0.032-0.064-0.064-0.096-0.096h-0.032l-30.912-38.944-30.912 36.576c-0.032 0.032-0.064 0.064-0.096 0.096h-0.032c-54.4 54.432-116.032 84.384-192.96 84.384s-149.248-29.952-203.648-84.352c-54.368-54.4-84.352-126.72-84.352-203.648 0-76.864 29.92-149.184 84.256-203.552l382.304-385.504c12-12.128 28.384-18.944 45.44-18.944s33.44 6.816 45.44 18.944l382.272 385.504c54.336 54.368 84.288 126.656 84.288 203.552 0 76.928-29.984 149.248-84.352 203.648-54.4 54.4-126.72 84.352-203.648 84.352v0z" />
<glyph unicode="&#xe932;" glyph-name="bookmark" d="M928-128h-672v1024h320v-576l96 128h64l96-128v576h96c17.696 0 32-14.336 32-32v-960c0-17.696-14.304-32-32-32zM64-96v960c0 17.664 14.304 32 32 32h96v-1024h-96c-17.696 0-32 14.304-32 32z" />
<glyph unicode="&#xe933;" glyph-name="wrench" d="M799.424 585.024c11.936-11.936 31.296-11.936 43.2 0l169.056 133.088c28.128-88.448 8.256-188.864-61.92-259.040-66.944-66.976-161.472-88.064-246.848-65.536l-200.512-200.512c22.528-85.408 1.408-179.904-65.504-246.848-70.176-70.176-170.624-90.048-259.072-61.92l133.152 169.024c11.936 11.968 11.936 31.296 0 43.232l-86.4 86.368c-11.936 11.936-31.296 11.936-43.2 0l-169.056-133.088c-28.128 88.448-8.256 188.832 61.888 259.008 66.976 66.976 161.472 88.096 246.88 65.536l200.544 200.544c-22.56 85.376-1.44 179.904 65.472 246.848 70.176 70.176 170.624 90.048 259.104 61.952l-133.152-169.088c-11.904-11.904-11.904-31.264 0-43.168l86.368-86.4z" />
<glyph unicode="&#xe934;" glyph-name="calendar" d="M385.536 353.248c-5.696-8.224-12.64-28.832-20.864-33.888-8.224-5.024-17.504-8.544-27.808-10.496-10.336-1.984-21.024-2.848-32.064-2.528v-48.864h78.944v-193.472h63.712v319.872h-50.688c-1.792-12.192-5.536-22.4-11.232-30.624zM736 640h64c17.696 0 32 14.336 32 32v192c0 17.664-14.304 32-32 32h-64c-17.696 0-32-14.336-32-32v-192c0-17.664 14.304-32 32-32zM224 640h64c17.664 0 32 14.336 32 32v192c0 17.664-14.336 32-32 32h-64c-17.664 0-32-14.336-32-32v-192c0-17.664 14.336-32 32-32zM960 768h-64v-160c0-17.664-14.304-32-32-32h-192c-17.696 0-32 14.336-32 32v160h-256v-160c0-17.664-14.336-32-32-32h-192c-17.664 0-32 14.336-32 32v160h-64c-35.328 0-64-28.672-64-64v-768c0-35.328 28.672-64 64-64h896c35.328 0 64 28.672 64 64v768c0 35.328-28.672 64-64 64zM960-32c0-17.696-14.304-32-32-32h-832c-17.664 0-32 14.304-32 32v512c0 17.664 14.336 32 32 32h832c17.696 0 32-14.336 32-32v-512zM511.52 320.576h158.976c-29.952-36.864-54.048-74.4-72.48-118.56-18.4-44.192-20.416-90.176-23.968-137.984h68.192c0.288 21.312-6.24 44.32-1.632 68.992 4.672 24.672 11.264 49.024 19.744 73.12 8.544 24.064 19.136 46.752 31.872 68.064 12.672 21.344 27.296 39.328 43.744 53.952v55.744h-224.48v-63.328z" />
<glyph unicode="&#xe935;" glyph-name="window" d="M128 640h64v64h-64v-64zM896 832h-768c-70.688 0-128-57.312-128-128v-768h1024v768c0 70.688-57.312 128-128 128zM960 0h-896v512h896v-512zM960 576h-896v128c0 35.328 28.672 64 64 64h768c35.328 0 64-28.672 64-64v-128zM864 704h-448c-17.664 0-32-14.336-32-32s14.336-32 32-32h448c17.696 0 32 14.336 32 32s-14.304 32-32 32zM256 640h64v64h-64v-64z" />
<glyph unicode="&#xe936;" glyph-name="monitor" d="M960 128c0 0-264 0-320 0s64-192 64-192c0-35.328-28.672-64-64-64h-256c-35.328 0-64 28.672-64 64 0 0 121.984 192 64 192s-320 0-320 0c-35.328 0-64 28.672-64 64v640c0 35.328 28.672 64 64 64h896c35.328 0 64-28.672 64-64v-640c0-35.328-28.672-64-64-64zM512 160c35.328 0 64 28.672 64 64s-28.672 64-64 64-64-28.672-64-64 28.672-64 64-64zM960 768c0 35.328-28.672 64-64 64h-768c-35.328 0-64-28.672-64-64v-384c0-35.328 28.672-64 64-64h768c35.328 0 64 28.672 64 64v384z" />
<glyph unicode="&#xe937;" glyph-name="mobile" d="M704 896h-384c-70.688 0-128-57.312-128-128v-768c0-70.688 57.312-128 128-128h384c70.688 0 128 57.312 128 128v768c0 70.688-57.312 128-128 128zM528 800h96c8.8 0 16-7.168 16-16s-7.2-16-16-16h-96c-8.832 0-16 7.168-16 16s7.168 16 16 16zM416 832c17.664 0 32-14.336 32-32s-14.336-32-32-32-32 14.336-32 32 14.336 32 32 32zM576-32c0-17.696-14.304-32-32-32h-64c-17.664 0-32 14.304-32 32v64c0 17.696 14.336 32 32 32h64c17.696 0 32-14.304 32-32v-64zM768 160c0-17.696-14.304-32-32-32h-448c-17.664 0-32 14.304-32 32v512c0 17.664 14.336 32 32 32h448c17.696 0 32-14.336 32-32v-512z" />
<glyph unicode="&#xe938;" glyph-name="droplet1" d="M513.216 896c0 0-321.216-381.472-321.216-704.736 0-323.296 318.784-319.264 318.784-319.264s321.216 4 321.216 321.248-318.784 702.752-318.784 702.752zM512 0c-106.016 0-192 85.984-192 192 0 67.872 35.648 126.816 88.864 160.832-15.264-20.384-24.864-48.96-24.864-80.832 0-6.624 0.608-13.024 1.376-19.328-0.288-4.288-1.376-8.32-1.376-12.672 0-8.224 1.344-16.096 2.432-24-1.504-7.776-2.432-15.776-2.432-24 0-70.688 57.312-128 128-128 8.224 0 16.224 0.928 24 2.4 7.936-1.088 15.776-2.4 24-2.4 4.352 0 8.384 1.056 12.64 1.408 6.304-0.8 12.736-1.408 19.36-1.408 31.872 0 60.448 9.6 80.832 24.832-34.016-53.184-92.96-88.832-160.832-88.832z" />
<glyph unicode="&#xe939;" glyph-name="mouse" d="M496 384c-70.688 0-128 57.312-128 128h-192v-320c0-176.704 143.264-320 320-320s320 143.296 320 320v320h-192c0-70.688-57.312-128-128-128zM368 640c0 70.688 57.312 128 128 128s128-57.312 128-128v-64h192c0 176.736-143.264 320-320 320s-320-143.264-320-320h192v64zM464 672v-192c0-17.664 14.336-32 32-32s32 14.336 32 32v192c0 17.664-14.336 32-32 32s-32-14.336-32-32z" />
<glyph unicode="&#xe93a;" glyph-name="refresh" d="M752 320c0-141.376-114.624-256-256-256s-256 114.624-256 256c0 130.72 125.344 211.040 256 222.432v-158.432l320 224v32l-320 256v-161.344c-235.104-13.824-448-177.952-448-414.656 0-247.424 200.576-448 448-448s448 200.576 448 448h-192z" />
<glyph unicode="&#xe93b;" glyph-name="location1" d="M512.416-128v512.544h-512.416l1024 511.456-511.584-1024z" />
<glyph unicode="&#xe93c;" glyph-name="tag" d="M928.416 894.112v1.6h-311.872c-5.504 0.704-11.104 0.512-16.288-1.664-9.472-2.528-17.344-8.8-21.184-17.664l-570.144-570.112c-12.448-12.48-12.448-32.672 0-45.12l379.904-379.904c12.48-12.448 32.672-12.448 45.12 0l568.48 568.512c12.672 4.256 21.984 15.872 21.984 29.984v304c0 56.352-41.792 102.528-96 110.368zM832.416 639.712c-35.328 0-64 28.672-64 64s28.672 64 64 64 64-28.672 64-64-28.672-64-64-64z" />
<glyph unicode="&#xe93d;" glyph-name="phone" d="M68.032 857.984c40.896 40.992 164.512 47.84 165.44 26.144 0.928-21.664 111.328-262.112 112.288-283.808 0.96-21.664-72.768-95.584-94.336-117.216-21.376-21.408 144.256-209.056 147.392-212.608 3.52-3.168 190.72-169.184 212.096-147.744 21.568 21.632 95.328 95.52 116.896 94.56 21.632-0.928 261.536-111.584 283.168-112.576 21.632-0.928 14.816-124.8-26.080-165.824-34.976-35.040-216.064-162.272-530.944 64.928-34.528 19.904-89.216 65.568-172.16 148.672-0.032 0.032-0.096 0.096-0.16 0.128-0.064 0.096-0.128 0.128-0.192 0.192s-0.128 0.128-0.192 0.192c-0.032 0.064-0.096 0.128-0.128 0.16-82.88 83.136-128.448 137.984-148.32 172.576-226.656 315.648-99.712 497.184-64.768 532.224z" />
<glyph unicode="&#xe93e;" glyph-name="star1" d="M406.752 65.12c-210.496-167.68-267.264-127.136-170.272 121.824-270.4-13.952-292.096 51.808-65.056 197.056-227.040 145.28-205.344 210.976 65.056 197.088-96.96 248.928-40.192 289.536 170.272 121.792 70.144 257.472 140.32 257.472 210.496 0 210.464 167.744 267.264 127.136 170.24-121.792 270.432 13.888 292.096-51.808 65.056-197.088 227.040-145.248 205.376-211.008-65.056-197.056 96.992-248.928 40.224-289.504-170.24-121.824-70.144-257.504-140.352-257.504-210.496 0z" />
<glyph unicode="&#xe93f;" glyph-name="pointer" d="M534.048 331.040l169.952-395.040-128-64-148.672 405.696-235.328-213.696v832l640-512-297.952-52.96z" />
</font>
</defs>
</svg>
